<svg xmlns="http://www.w3.org/2000/svg" xmlns:xlink="http://www.w3.org/1999/xlink" width="500" zoomAndPan="magnify" viewBox="0 0 375 374.999991" height="500" preserveAspectRatio="xMidYMid meet" version="1.0"><defs><clipPath id="id1"><path d="M 152.246094 325 L 180 325 L 180 327 L 152.246094 327 Z M 152.246094 325 " clip-rule="nonzero"/></clipPath><clipPath id="id2"><path d="M 152.246094 303 L 180 303 L 180 305 L 152.246094 305 Z M 152.246094 303 " clip-rule="nonzero"/></clipPath><clipPath id="id3"><path d="M 152.246094 281 L 180 281 L 180 283 L 152.246094 283 Z M 152.246094 281 " clip-rule="nonzero"/></clipPath><clipPath id="id4"><path d="M 152.246094 259 L 180 259 L 180 261 L 152.246094 261 Z M 152.246094 259 " clip-rule="nonzero"/></clipPath><clipPath id="id5"><path d="M 152.246094 236 L 180 236 L 180 239 L 152.246094 239 Z M 152.246094 236 " clip-rule="nonzero"/></clipPath><clipPath id="id6"><path d="M 152.246094 215 L 180 215 L 180 216 L 152.246094 216 Z M 152.246094 215 " clip-rule="nonzero"/></clipPath><clipPath id="id7"><path d="M 152.246094 192 L 180 192 L 180 195 L 152.246094 195 Z M 152.246094 192 " clip-rule="nonzero"/></clipPath><clipPath id="id8"><path d="M 152.246094 170 L 180 170 L 180 172 L 152.246094 172 Z M 152.246094 170 " clip-rule="nonzero"/></clipPath><clipPath id="id9"><path d="M 152.246094 148 L 180 148 L 180 150 L 152.246094 150 Z M 152.246094 148 " clip-rule="nonzero"/></clipPath><clipPath id="id10"><path d="M 152.246094 126 L 180 126 L 180 128 L 152.246094 128 Z M 152.246094 126 " clip-rule="nonzero"/></clipPath><clipPath id="id11"><path d="M 152.246094 104 L 180 104 L 180 106 L 152.246094 106 Z M 152.246094 104 " clip-rule="nonzero"/></clipPath><clipPath id="id12"><path d="M 152.246094 82 L 180 82 L 180 84 L 152.246094 84 Z M 152.246094 82 " clip-rule="nonzero"/></clipPath><clipPath id="id13"><path d="M 152.246094 59 L 180 59 L 180 62 L 152.246094 62 Z M 152.246094 59 " clip-rule="nonzero"/></clipPath><clipPath id="id14"><path d="M 152.246094 37 L 180 37 L 180 39 L 152.246094 39 Z M 152.246094 37 " clip-rule="nonzero"/></clipPath><clipPath id="id15"><path d="M 152.246094 15 L 180 15 L 180 17 L 152.246094 17 Z M 152.246094 15 " clip-rule="nonzero"/></clipPath><clipPath id="id16"><path d="M 186 69 L 187.496094 69 L 187.496094 97 L 186 97 Z M 186 69 " clip-rule="nonzero"/></clipPath></defs><rect x="-37.5" width="450" fill="#ffffff" y="-37.499999" height="449.999989" fill-opacity="1"/><rect x="-37.5" width="450" fill="#ffffff" y="-37.499999" height="449.999989" fill-opacity="1"/><rect x="-37.5" width="450" fill="#ffffff" y="-37.499999" height="449.999989" fill-opacity="1"/><path fill="#00b4eb" d="M 166.226562 338.929688 L 179.859375 338.929688 L 179.859375 335.625 L 166.226562 335.625 " fill-opacity="1" fill-rule="nonzero"/><g clip-path="url(#id1)"><path fill="#00b4eb" d="M 152.183594 326.542969 L 179.859375 326.542969 L 179.859375 325.71875 L 152.183594 325.71875 " fill-opacity="1" fill-rule="nonzero"/></g><path fill="#00b4eb" d="M 166.226562 316.636719 L 179.859375 316.636719 L 179.859375 313.332031 L 166.226562 313.332031 " fill-opacity="1" fill-rule="nonzero"/><g clip-path="url(#id2)"><path fill="#00b4eb" d="M 152.183594 304.664062 L 179.859375 304.664062 L 179.859375 303.425781 L 152.183594 303.425781 " fill-opacity="1" fill-rule="nonzero"/></g><path fill="#00b4eb" d="M 166.226562 294.753906 L 179.859375 294.753906 L 179.859375 291.453125 L 166.226562 291.453125 " fill-opacity="1" fill-rule="nonzero"/><g clip-path="url(#id3)"><path fill="#00b4eb" d="M 152.183594 282.371094 L 179.859375 282.371094 L 179.859375 281.132812 L 152.183594 281.132812 " fill-opacity="1" fill-rule="nonzero"/></g><path fill="#00b4eb" d="M 166.226562 272.464844 L 179.859375 272.464844 L 179.859375 269.160156 L 166.226562 269.160156 " fill-opacity="1" fill-rule="nonzero"/><g clip-path="url(#id4)"><path fill="#00b4eb" d="M 152.183594 260.078125 L 179.859375 260.078125 L 179.859375 259.253906 L 152.183594 259.253906 " fill-opacity="1" fill-rule="nonzero"/></g><path fill="#00b4eb" d="M 166.226562 250.171875 L 179.859375 250.171875 L 179.859375 246.867188 L 166.226562 246.867188 " fill-opacity="1" fill-rule="nonzero"/><g clip-path="url(#id5)"><path fill="#00b4eb" d="M 152.183594 238.199219 L 179.859375 238.199219 L 179.859375 236.960938 L 152.183594 236.960938 " fill-opacity="1" fill-rule="nonzero"/></g><path fill="#00b4eb" d="M 166.226562 228.289062 L 179.859375 228.289062 L 179.859375 224.988281 L 166.226562 224.988281 " fill-opacity="1" fill-rule="nonzero"/><g clip-path="url(#id6)"><path fill="#00b4eb" d="M 152.183594 215.90625 L 179.859375 215.90625 L 179.859375 215.078125 L 152.183594 215.078125 " fill-opacity="1" fill-rule="nonzero"/></g><path fill="#00b4eb" d="M 166.226562 205.996094 L 179.859375 205.996094 L 179.859375 202.695312 L 166.226562 202.695312 " fill-opacity="1" fill-rule="nonzero"/><g clip-path="url(#id7)"><path fill="#00b4eb" d="M 152.183594 194.023438 L 179.859375 194.023438 L 179.859375 192.785156 L 152.183594 192.785156 " fill-opacity="1" fill-rule="nonzero"/></g><path fill="#00b4eb" d="M 166.226562 184.117188 L 179.859375 184.117188 L 179.859375 180.8125 L 166.226562 180.8125 " fill-opacity="1" fill-rule="nonzero"/><g clip-path="url(#id8)"><path fill="#00b4eb" d="M 152.183594 171.730469 L 179.859375 171.730469 L 179.859375 170.492188 L 152.183594 170.492188 " fill-opacity="1" fill-rule="nonzero"/></g><path fill="#00b4eb" d="M 166.226562 161.824219 L 179.859375 161.824219 L 179.859375 158.519531 L 166.226562 158.519531 " fill-opacity="1" fill-rule="nonzero"/><g clip-path="url(#id9)"><path fill="#00b4eb" d="M 152.183594 149.4375 L 179.859375 149.4375 L 179.859375 148.613281 L 152.183594 148.613281 " fill-opacity="1" fill-rule="nonzero"/></g><path fill="#00b4eb" d="M 166.226562 139.53125 L 179.859375 139.53125 L 179.859375 136.226562 L 166.226562 136.226562 " fill-opacity="1" fill-rule="nonzero"/><g clip-path="url(#id10)"><path fill="#00b4eb" d="M 152.183594 127.558594 L 179.859375 127.558594 L 179.859375 126.320312 L 152.183594 126.320312 " fill-opacity="1" fill-rule="nonzero"/></g><path fill="#00b4eb" d="M 166.226562 117.652344 L 179.859375 117.652344 L 179.859375 114.347656 L 166.226562 114.347656 " fill-opacity="1" fill-rule="nonzero"/><g clip-path="url(#id11)"><path fill="#00b4eb" d="M 152.183594 105.265625 L 179.859375 105.265625 L 179.859375 104.441406 L 152.183594 104.441406 " fill-opacity="1" fill-rule="nonzero"/></g><path fill="#00b4eb" d="M 166.226562 95.359375 L 179.859375 95.359375 L 179.859375 92.054688 L 166.226562 92.054688 " fill-opacity="1" fill-rule="nonzero"/><g clip-path="url(#id12)"><path fill="#00b4eb" d="M 152.183594 83.386719 L 179.859375 83.386719 L 179.859375 82.148438 L 152.183594 82.148438 " fill-opacity="1" fill-rule="nonzero"/></g><path fill="#00b4eb" d="M 166.226562 73.476562 L 179.859375 73.476562 L 179.859375 70.175781 L 166.226562 70.175781 " fill-opacity="1" fill-rule="nonzero"/><g clip-path="url(#id13)"><path fill="#00b4eb" d="M 152.183594 61.09375 L 179.859375 61.09375 L 179.859375 59.855469 L 152.183594 59.855469 " fill-opacity="1" fill-rule="nonzero"/></g><path fill="#00b4eb" d="M 166.226562 51.183594 L 179.859375 51.183594 L 179.859375 47.882812 L 166.226562 47.882812 " fill-opacity="1" fill-rule="nonzero"/><g clip-path="url(#id14)"><path fill="#00b4eb" d="M 152.183594 38.800781 L 179.859375 38.800781 L 179.859375 37.972656 L 152.183594 37.972656 " fill-opacity="1" fill-rule="nonzero"/></g><path fill="#00b4eb" d="M 166.226562 28.890625 L 179.859375 28.890625 L 179.859375 25.589844 L 166.226562 25.589844 " fill-opacity="1" fill-rule="nonzero"/><g clip-path="url(#id15)"><path fill="#00b4eb" d="M 152.183594 16.921875 L 179.859375 16.921875 L 179.859375 15.679688 L 152.183594 15.679688 " fill-opacity="1" fill-rule="nonzero"/></g><g clip-path="url(#id16)"><path fill="#005a76" d="M 186.882812 82.558594 L 229.433594 69.351562 L 229.433594 96.183594 L 186.882812 82.558594 " fill-opacity="1" fill-rule="nonzero"/></g></svg>
