<svg xmlns="http://www.w3.org/2000/svg" xmlns:xlink="http://www.w3.org/1999/xlink" width="500" zoomAndPan="magnify" viewBox="0 0 375 374.999991" height="500" preserveAspectRatio="xMidYMid meet" version="1.0"><defs><clipPath id="id1"><path d="M 98.390625 106 L 276.890625 106 L 276.890625 342.328125 L 98.390625 342.328125 Z M 98.390625 106 " clip-rule="nonzero"/></clipPath><clipPath id="id2"><path d="M 169 22.078125 L 209 22.078125 L 209 61 L 169 61 Z M 169 22.078125 " clip-rule="nonzero"/></clipPath></defs><g clip-path="url(#id1)"><path fill="#225c97" d="M 187.558594 342.683594 C 138.585938 342.683594 98.746094 302.917969 98.746094 254.039062 C 98.746094 214.242188 124.933594 179.777344 162.90625 168.890625 L 162.90625 106.859375 L 212.214844 106.859375 L 212.214844 168.894531 C 250.1875 179.777344 276.371094 214.238281 276.371094 254.039062 C 276.371094 302.917969 236.53125 342.683594 187.558594 342.683594 Z M 172.957031 116.890625 L 172.957031 176.710938 L 169.105469 177.632812 C 133.59375 186.148438 108.796875 217.566406 108.796875 254.039062 C 108.796875 297.386719 144.128906 332.652344 187.558594 332.652344 C 230.988281 332.652344 266.324219 297.386719 266.324219 254.039062 C 266.324219 217.5625 241.523438 186.144531 206.015625 177.636719 L 202.164062 176.710938 L 202.164062 116.890625 Z M 172.957031 116.890625 " fill-opacity="1" fill-rule="nonzero"/></g><path fill="#225c97" d="M 222.035156 116.894531 L 153.085938 116.894531 L 153.085938 87.25 L 222.035156 87.25 Z M 163.136719 106.863281 L 211.984375 106.863281 L 211.984375 97.28125 L 163.136719 97.28125 Z M 163.136719 106.863281 " fill-opacity="1" fill-rule="nonzero"/><path fill="#225c97" d="M 167.929688 152.5 L 180.105469 152.5 L 180.105469 162.53125 L 167.929688 162.53125 Z M 167.929688 152.5 " fill-opacity="1" fill-rule="nonzero"/><path fill="#225c97" d="M 167.929688 137.277344 L 180.105469 137.277344 L 180.105469 147.308594 L 167.929688 147.308594 Z M 167.929688 137.277344 " fill-opacity="1" fill-rule="nonzero"/><path fill="#225c97" d="M 167.929688 122.066406 L 180.105469 122.066406 L 180.105469 132.097656 L 167.929688 132.097656 Z M 167.929688 122.066406 " fill-opacity="1" fill-rule="nonzero"/><path fill="#225c97" d="M 243.472656 238.128906 C 238.835938 221.914062 227.378906 208.539062 212.035156 201.425781 L 216.269531 192.328125 C 234.261719 200.667969 247.699219 216.359375 253.136719 235.375 Z M 243.472656 238.128906 " fill-opacity="1" fill-rule="nonzero"/><path fill="#225c97" d="M 202.773438 198.03125 C 197.875 196.691406 192.757812 196.011719 187.558594 196.011719 L 187.558594 185.980469 C 193.652344 185.980469 199.664062 186.777344 205.425781 188.355469 Z M 202.773438 198.03125 " fill-opacity="1" fill-rule="nonzero"/><path fill="#f2d5c5" d="M 119.492188 254.039062 C 119.492188 291.511719 150.015625 322 187.558594 322 C 225.101562 322 255.632812 291.511719 255.632812 254.039062 Z M 119.492188 254.039062 " fill-opacity="1" fill-rule="nonzero"/><path fill="#f2d5c5" d="M 173.347656 256.332031 C 173.347656 264.1875 166.96875 270.554688 159.105469 270.554688 C 151.21875 270.554688 144.839844 264.1875 144.839844 256.332031 C 144.839844 248.484375 151.21875 242.117188 159.105469 242.117188 C 166.96875 242.117188 173.347656 248.484375 173.347656 256.332031 Z M 173.347656 256.332031 " fill-opacity="1" fill-rule="nonzero"/><path fill="#f2d5c5" d="M 204.042969 233.601562 C 204.042969 237.914062 200.515625 241.433594 196.191406 241.433594 C 191.855469 241.433594 188.324219 237.917969 188.324219 233.601562 C 188.324219 229.265625 191.855469 225.753906 196.191406 225.753906 C 200.515625 225.753906 204.042969 229.265625 204.042969 233.601562 Z M 204.042969 233.601562 " fill-opacity="1" fill-rule="nonzero"/><path fill="#ffffff" d="M 168.765625 283.453125 C 168.765625 288.3125 164.808594 292.273438 159.933594 292.273438 C 155.050781 292.273438 151.09375 288.3125 151.09375 283.453125 C 151.09375 278.585938 155.050781 274.632812 159.933594 274.632812 C 164.808594 274.632812 168.765625 278.585938 168.765625 283.453125 Z M 168.765625 283.453125 " fill-opacity="1" fill-rule="nonzero"/><path fill="#ffffff" d="M 225.410156 272.726562 C 225.410156 274.894531 223.636719 276.640625 221.484375 276.640625 C 219.3125 276.640625 217.542969 274.890625 217.542969 272.726562 C 217.542969 270.558594 219.3125 268.808594 221.484375 268.808594 C 223.636719 268.808594 225.410156 270.558594 225.410156 272.726562 Z M 225.410156 272.726562 " fill-opacity="1" fill-rule="nonzero"/><path fill="#ffffff" d="M 208.453125 296.480469 C 208.453125 300.257812 205.371094 303.332031 201.582031 303.332031 C 197.785156 303.332031 194.707031 300.257812 194.707031 296.480469 C 194.707031 292.683594 197.785156 289.613281 201.582031 289.613281 C 205.371094 289.613281 208.453125 292.683594 208.453125 296.480469 Z M 208.453125 296.480469 " fill-opacity="1" fill-rule="nonzero"/><path fill="#225c97" d="M 136.742188 88.210938 C 130.324219 88.210938 125.101562 83 125.101562 76.597656 C 125.101562 70.1875 130.324219 64.972656 136.742188 64.972656 C 143.160156 64.972656 148.382812 70.1875 148.382812 76.597656 C 148.382812 83 143.160156 88.210938 136.742188 88.210938 Z M 136.742188 75.003906 C 135.863281 75.003906 135.152344 75.71875 135.152344 76.597656 C 135.152344 77.46875 135.863281 78.179688 136.742188 78.179688 C 137.621094 78.179688 138.332031 77.46875 138.332031 76.597656 C 138.332031 75.71875 137.621094 75.003906 136.742188 75.003906 Z M 136.742188 75.003906 " fill-opacity="1" fill-rule="nonzero"/><path fill="#225c97" d="M 227.289062 81.609375 C 219.304688 81.609375 212.8125 75.125 212.8125 67.15625 C 212.8125 59.1875 219.304688 52.703125 227.289062 52.703125 C 235.273438 52.703125 241.769531 59.1875 241.769531 67.15625 C 241.769531 75.125 235.273438 81.609375 227.289062 81.609375 Z M 227.289062 62.734375 C 224.847656 62.734375 222.863281 64.714844 222.863281 67.15625 C 222.863281 69.59375 224.847656 71.578125 227.289062 71.578125 C 229.734375 71.578125 231.71875 69.59375 231.71875 67.15625 C 231.71875 64.71875 229.734375 62.734375 227.289062 62.734375 Z M 227.289062 62.734375 " fill-opacity="1" fill-rule="nonzero"/><g clip-path="url(#id2)"><path fill="#225c97" d="M 189.035156 60.71875 C 178.253906 60.71875 169.480469 51.960938 169.480469 41.195312 C 169.480469 30.4375 178.253906 21.683594 189.035156 21.683594 C 199.820312 21.683594 208.59375 30.4375 208.59375 41.195312 C 208.59375 51.960938 199.820312 60.71875 189.035156 60.71875 Z M 189.035156 31.714844 C 183.796875 31.714844 179.53125 35.96875 179.53125 41.195312 C 179.53125 46.429688 183.792969 50.6875 189.035156 50.6875 C 194.277344 50.6875 198.542969 46.429688 198.542969 41.195312 C 198.542969 35.96875 194.277344 31.714844 189.035156 31.714844 Z M 189.035156 31.714844 " fill-opacity="1" fill-rule="nonzero"/></g></svg>
