<svg xmlns="http://www.w3.org/2000/svg" xmlns:xlink="http://www.w3.org/1999/xlink" width="500" zoomAndPan="magnify" viewBox="0 0 375 374.999991" height="500" preserveAspectRatio="xMidYMid meet" version="1.0"><defs><filter x="0%" y="0%" width="100%" height="100%" id="id1"><feColorMatrix values="0 0 0 0 1 0 0 0 0 1 0 0 0 0 1 0 0 0 1 0" color-interpolation-filters="sRGB"/></filter><mask id="id2"><g filter="url(#id1)"><rect x="-37.5" width="450" fill="#000000" y="-37.499999" height="449.999989" fill-opacity="0.698"/></g></mask><clipPath id="id3"><path d="M 0.480469 1 L 130.800781 1 L 130.800781 260.601562 L 0.480469 260.601562 Z M 0.480469 1 " clip-rule="nonzero"/></clipPath><clipPath id="id4"><rect x="0" width="131" y="0" height="261"/></clipPath></defs><path fill="#225c97" d="M 178.480469 303.339844 C 107.089844 303.339844 49.015625 245.265625 49.015625 173.875 C 49.015625 102.480469 107.089844 44.40625 178.480469 44.40625 C 249.875 44.40625 307.949219 102.480469 307.949219 173.875 C 307.949219 245.265625 249.875 303.339844 178.480469 303.339844 Z M 178.480469 70.574219 C 121.515625 70.574219 75.183594 116.90625 75.183594 173.875 C 75.183594 230.839844 121.515625 277.171875 178.480469 277.171875 C 235.449219 277.171875 281.78125 230.789062 281.78125 173.875 C 281.78125 116.90625 235.449219 70.574219 178.480469 70.574219 Z M 178.480469 70.574219 " fill-opacity="1" fill-rule="nonzero"/><g mask="url(#id2)"><g transform="matrix(1, 0, 0, 1, 48, 43)"><g clip-path="url(#id4)"><g clip-path="url(#id3)"><path fill="#ffffff" d="M 130.480469 234.332031 C 73.460938 234.332031 27.078125 187.945312 27.078125 130.925781 C 27.078125 73.90625 73.460938 27.523438 130.480469 27.523438 L 130.480469 1.25 C 58.984375 1.25 0.859375 59.425781 0.859375 130.875 C 0.859375 202.371094 58.984375 260.550781 130.480469 260.550781 Z M 130.480469 234.332031 " fill-opacity="1" fill-rule="nonzero"/></g></g></g></g></svg>