<svg xmlns="http://www.w3.org/2000/svg" xmlns:xlink="http://www.w3.org/1999/xlink" width="500" zoomAndPan="magnify" viewBox="0 0 375 374.999991" height="500" preserveAspectRatio="xMidYMid meet" version="1.0"><defs><clipPath id="id1"><path d="M 65 107 L 266 107 L 266 333.644531 L 65 333.644531 Z M 65 107 " clip-rule="nonzero"/></clipPath></defs><path fill="#ff9800" d="M 103.835938 250.65625 C 74.777344 235.78125 93.914062 199.65625 93.914062 199.65625 L 115.179688 157.15625 L 171.882812 185.492188 L 150.617188 227.992188 C 150.617188 227.992188 132.1875 265.53125 103.835938 250.65625 Z M 103.835938 250.65625 " fill-opacity="1" fill-rule="nonzero"/><path fill="#ffb74d" d="M 159.125 73.574219 C 126.519531 40.992188 59.183594 131.65625 80.445312 152.90625 L 104.546875 176.992188 C 122.265625 192.574219 164.085938 200.367188 186.058594 178.40625 C 208.03125 156.449219 203.777344 118.90625 183.222656 97.65625 Z M 159.125 73.574219 " fill-opacity="1" fill-rule="nonzero"/><g clip-path="url(#id1)"><path fill="#4fc3f7" d="M 265.441406 155.742188 L 242.761719 179.117188 L 193.144531 142.992188 L 228.585938 107.574219 Z M 214.410156 277.574219 C 212.28125 227.28125 93.914062 192.574219 93.914062 192.574219 C 93.914062 192.574219 65.5625 220.199219 65.5625 277.574219 L 65.5625 334.242188 L 200.234375 334.242188 L 186.058594 277.574219 Z M 214.410156 277.574219 " fill-opacity="1" fill-rule="nonzero"/></g><path fill="#b3e5fc" d="M 252.683594 139.449219 L 228.585938 107.574219 L 193.144531 142.992188 L 200.941406 148.65625 Z M 252.683594 139.449219 " fill-opacity="1" fill-rule="nonzero"/><path fill="#e1f5fe" d="M 221.496094 114.65625 L 264.023438 164.242188 L 214.410156 121.742188 Z M 221.496094 114.65625 " fill-opacity="1" fill-rule="nonzero"/><path fill="#ffb74d" d="M 227.875 174.867188 C 227.875 174.15625 227.875 173.449219 228.585938 172.03125 L 254.101562 145.117188 C 258.355469 140.867188 264.023438 138.742188 268.988281 146.53125 L 289.542969 181.242188 C 293.085938 185.492188 293.085938 189.03125 289.542969 193.28125 L 268.988281 213.824219 C 268.277344 213.824219 267.570312 213.824219 266.152344 213.824219 C 264.734375 213.824219 264.734375 213.824219 263.316406 213.824219 L 228.585938 177.699219 C 228.585938 176.28125 227.875 175.574219 227.875 174.867188 Z M 227.875 174.867188 " fill-opacity="1" fill-rule="nonzero"/><path fill="#4fc3f7" d="M 292.378906 185.492188 L 292.378906 256.324219 C 292.378906 269.074219 276.785156 277.574219 264.023438 277.574219 C 251.265625 277.574219 242.761719 269.074219 242.761719 256.324219 L 242.761719 185.492188 C 242.761719 172.742188 249.847656 164.242188 271.113281 164.242188 C 278.199219 164.242188 293.085938 172.03125 292.378906 185.492188 Z M 292.378906 185.492188 " fill-opacity="1" fill-rule="nonzero"/><path fill="#4fc3f7" d="M 136.441406 277.574219 L 256.9375 277.574219 C 276.785156 278.28125 285.289062 267.65625 285.289062 255.617188 L 285.289062 252.074219 C 285.289062 240.03125 275.367188 228.699219 256.9375 227.992188 L 136.441406 227.992188 C 115.179688 227.28125 101.003906 235.074219 101.003906 251.367188 L 101.003906 256.324219 C 103.128906 267.65625 118.722656 277.574219 136.441406 277.574219 Z M 136.441406 277.574219 " fill-opacity="1" fill-rule="nonzero"/><path fill="#795548" d="M 157.707031 68.617188 C 157.707031 68.617188 159.832031 48.78125 118.011719 50.90625 C 81.15625 53.03125 47.132812 73.574219 53.511719 102.617188 C 54.929688 109.699219 51.386719 116.78125 51.386719 122.449219 C 51.386719 155.742188 82.574219 169.90625 105.964844 177.699219 C 112.34375 180.53125 117.304688 165.65625 117.304688 165.65625 C 117.304688 165.65625 97.457031 156.449219 98.167969 131.65625 C 103.128906 111.824219 116.597656 141.574219 120.847656 140.867188 C 125.101562 140.15625 127.9375 135.90625 127.9375 135.90625 C 127.9375 135.90625 119.429688 111.117188 110.925781 99.074219 C 125.808594 81.367188 157.707031 68.617188 157.707031 68.617188 Z M 154.160156 114.65625 C 152.035156 114.65625 150.617188 113.242188 150.617188 111.117188 C 150.617188 104.742188 154.160156 93.40625 168.335938 93.40625 C 170.464844 93.40625 171.882812 94.824219 171.882812 96.949219 C 171.882812 99.074219 170.464844 100.492188 168.335938 100.492188 C 158.414062 100.492188 157.707031 109.699219 157.707031 111.117188 C 157.707031 113.242188 156.289062 114.65625 154.160156 114.65625 Z M 154.160156 114.65625 " fill-opacity="1" fill-rule="nonzero"/><path fill="#039be5" d="M 186.058594 277.574219 L 129.355469 277.574219 L 193.144531 305.90625 Z M 186.058594 277.574219 " fill-opacity="1" fill-rule="nonzero"/></svg>