<svg xmlns="http://www.w3.org/2000/svg" xmlns:xlink="http://www.w3.org/1999/xlink" width="1056" zoomAndPan="magnify" viewBox="0 0 792 611.999999" height="816" preserveAspectRatio="xMidYMid meet" version="1.0"><defs><clipPath id="id1"><path d="M 137.128906 86.722656 L 622 86.722656 L 622 524 L 137.128906 524 Z M 137.128906 86.722656 " clip-rule="nonzero"/></clipPath></defs><path fill="#fde6da" d="M 508.375 352.195312 C 507.757812 364.859375 503.007812 375.902344 495.539062 386.019531 C 480.238281 406.722656 460.035156 421 436.214844 429.761719 C 380.332031 450.28125 325.832031 447.429688 273.414062 418.046875 C 270.257812 416.277344 267.304688 414.117188 264.328125 412.039062 C 263.429688 411.394531 261.710938 411.011719 262.25 409.367188 C 262.8125 407.570312 264.328125 408.109375 265.714844 408.261719 C 267.820312 408.492188 269.949219 408.570312 272.082031 408.570312 C 273.902344 408.570312 275.238281 407.59375 275.621094 405.796875 C 276.007812 403.949219 275.007812 402.511719 273.339844 401.945312 C 262.582031 398.296875 257.730469 389.335938 254.214844 379.78125 C 246 357.332031 245.921875 334.449219 252.007812 311.4375 C 252.570312 309.304688 254.035156 308.558594 255.753906 307.710938 C 276.265625 297.902344 293.386719 284.007812 306.476562 265.308594 C 313.359375 255.496094 318.183594 244.789062 320.160156 232.792969 C 324.320312 242.527344 325.886719 252.363281 321.265625 262.328125 C 319.03125 267.15625 319.289062 268.621094 324.035156 270.855469 C 333.84375 275.480469 344.34375 277.175781 354.996094 277.714844 C 376.507812 278.820312 397.480469 276.199219 417.554688 267.980469 C 424.742188 265.027344 431.644531 261.480469 436.550781 255.0625 C 436.804688 255.035156 437.164062 254.90625 437.269531 255.011719 C 440.785156 259.042969 440.757812 259.015625 445.789062 256.089844 C 449.539062 253.90625 453.464844 253.136719 457.546875 255.164062 C 460.78125 256.78125 462.398438 259.683594 463.527344 262.972656 C 464.246094 265.050781 465.53125 266.59375 467.96875 265.847656 C 470.585938 265.027344 470.640625 263.023438 470.023438 260.6875 C 467.507812 250.925781 458.367188 245.351562 448.535156 247.457031 C 445.300781 248.152344 442.734375 250.257812 439.578125 251.027344 C 444.402344 241.089844 444.6875 231.6875 440.527344 215.765625 C 444.480469 215.304688 447.84375 216.871094 451.15625 218.566406 C 464.117188 225.164062 471.433594 236.390625 476.261719 249.589844 C 481.292969 263.410156 484.65625 277.765625 489.019531 291.789062 C 489.839844 294.410156 490.636719 297.027344 491.457031 299.621094 C 482.625 295.460938 473.488281 293.816406 463.785156 295.796875 C 459.703125 296.644531 456.1875 298.953125 452.128906 299.851562 C 451.386719 298.132812 450.847656 296.308594 449.898438 294.714844 C 447.074219 290.015625 443.144531 286.78125 437.34375 287.578125 C 431.621094 288.371094 428.386719 292.378906 427 297.695312 C 424.636719 306.863281 426.769531 314.75 434.367188 320.8125 C 434.675781 325.101562 432.851562 329.15625 432.851562 333.394531 C 432.851562 346.109375 436.933594 357.023438 446.585938 365.757812 C 462.988281 380.601562 488.070312 378.058594 501.980469 361.339844 C 504.394531 358.410156 505.601562 354.765625 508.375 352.195312 Z M 357.5625 336.375 C 360.769531 326.667969 359.488281 317.78125 351.914062 310.5625 C 345.035156 303.988281 335.253906 306.070312 330.96875 314.570312 C 329.53125 317.421875 329.144531 320.503906 328.707031 323.585938 C 325.601562 323.714844 322.523438 323.816406 319.390625 324.199219 C 297.929688 326.921875 278.472656 347.1875 281.628906 373.386719 C 284.660156 398.527344 308.09375 415.324219 331.710938 411.628906 C 353.558594 408.210938 368.855469 391.132812 369.703125 369.429688 C 373.246094 370.585938 376.738281 371.972656 380.355469 372.898438 C 394.191406 376.390625 407.851562 376.234375 421.019531 370.175781 C 426.820312 367.503906 431.59375 363.546875 434.625 357.769531 C 435.652344 355.816406 435.703125 353.738281 433.546875 352.503906 C 431.621094 351.425781 429.847656 352.195312 428.746094 354.019531 C 422.6875 363.933594 412.984375 366.785156 402.332031 367.964844 C 400.148438 368.195312 399.53125 367.476562 398.789062 365.472656 C 395.246094 355.894531 389.445312 348.0625 379.84375 343.796875 C 373.453125 340.945312 369.035156 342.230469 364.648438 347.597656 C 363.183594 343.285156 359.332031 340.511719 357.5625 336.375 Z M 321.316406 273.863281 C 309.457031 273.683594 297.367188 283.929688 295.542969 295.410156 C 295.183594 297.671875 295.390625 299.929688 297.957031 300.597656 C 300.546875 301.265625 301.652344 299.492188 302.371094 297.183594 C 306.222656 284.90625 312.820312 280.488281 325.320312 281.644531 C 327.246094 281.824219 328.941406 281.4375 329.453125 279.332031 C 329.941406 277.355469 328.941406 275.941406 327.195312 275.070312 C 325.242188 274.09375 323.164062 273.785156 321.316406 273.863281 Z M 412.648438 326.128906 C 412.523438 324.507812 411.445312 323.226562 409.132812 323.300781 C 406.976562 323.378906 403.355469 328.363281 403.589844 330.957031 C 403.769531 332.933594 404.769531 334.242188 406.953125 334.21875 C 409.234375 334.191406 412.726562 329.59375 412.648438 326.128906 Z M 247.410156 401.917969 C 233.550781 393.339844 224.257812 381.117188 218.917969 365.808594 C 218.636719 365.011719 218.53125 364.164062 217.273438 364.140625 C 212.292969 364.011719 207.367188 362.777344 202.359375 364.214844 C 200.203125 364.832031 197.816406 364.753906 197.175781 362.03125 C 196.535156 359.207031 198.613281 358.078125 200.949219 357.410156 C 205.261719 356.175781 209.675781 356.382812 214.015625 356.894531 C 216.300781 357.179688 216.53125 356.535156 216.246094 354.609375 C 215.144531 346.570312 215.554688 338.609375 218.097656 330.851562 C 218.6875 329.105469 217.789062 329.003906 216.554688 328.824219 C 197.917969 326.230469 181.902344 338.636719 185.390625 359.4375 C 189.039062 381.296875 208.699219 400.710938 230.367188 404.640625 C 236.476562 405.746094 242.457031 405.847656 248.539062 403.332031 C 248.027344 402.664062 247.796875 402.148438 247.410156 401.917969 Z M 501.90625 282.542969 C 503.238281 280.746094 505.011719 279.230469 507.296875 280.820312 C 509.707031 282.515625 508.9375 284.675781 507.476562 286.703125 C 505.089844 290.066406 502.957031 293.585938 501.03125 297.257812 C 499.824219 299.570312 499.644531 301.574219 500.828125 303.960938 C 503.984375 310.332031 507.089844 316.753906 509.941406 323.277344 C 510.914062 325.511719 511.609375 325.535156 513.25 323.996094 C 518.976562 318.628906 522.644531 312 524.800781 304.578125 C 528.269531 292.585938 528.78125 280.640625 522.644531 269.238281 C 520.285156 264.820312 516.84375 261.429688 511.710938 260.171875 C 504.910156 258.527344 493.074219 264.820312 490.890625 271.34375 C 490.636719 272.113281 490.710938 273.117188 490.945312 273.914062 C 492.507812 279.410156 494.152344 284.878906 496 291.148438 C 498.234375 287.882812 499.980469 285.164062 501.90625 282.542969 Z M 501.90625 282.542969 " fill-opacity="1" fill-rule="nonzero"/><path fill="#fda5a5" d="M 508.375 352.195312 C 505.601562 354.765625 504.394531 358.410156 502.007812 361.289062 C 488.09375 378.007812 463.015625 380.550781 446.613281 365.707031 C 436.960938 356.972656 432.878906 346.058594 432.878906 333.34375 C 432.878906 329.105469 434.675781 325.046875 434.390625 320.757812 C 442.300781 324.277344 449 321.300781 451.875 313.082031 C 453.414062 308.664062 453.234375 304.246094 452.15625 299.800781 C 456.1875 298.902344 459.703125 296.589844 463.808594 295.742188 C 473.515625 293.765625 482.679688 295.382812 491.484375 299.570312 C 495.539062 310.820312 502.316406 320.863281 505.910156 332.316406 C 507.910156 338.789062 508.785156 345.414062 508.375 352.195312 Z M 364.671875 347.597656 C 363.183594 343.308594 359.332031 340.511719 357.5625 336.402344 C 354.816406 341.410156 351.042969 345.003906 344.90625 344.722656 C 338.488281 344.441406 334.457031 340.457031 331.609375 335.117188 C 329.710938 331.546875 328.835938 327.644531 328.707031 323.609375 C 325.601562 323.738281 322.523438 323.839844 319.390625 324.226562 C 297.929688 326.949219 278.472656 347.214844 281.628906 373.410156 C 284.660156 398.554688 308.09375 415.351562 331.710938 411.652344 C 353.558594 408.238281 368.855469 391.15625 369.703125 369.457031 C 364.183594 365.292969 362.105469 356.203125 364.671875 347.597656 Z M 364.671875 347.597656 " fill-opacity="1" fill-rule="nonzero"/><g clip-path="url(#id1)"><path fill="#225c97" d="M 328.324219 86.707031 C 335.613281 86.707031 342.878906 86.730469 350.167969 86.730469 C 368.703125 87.964844 386.953125 90.738281 404.820312 95.875 C 405.898438 96.183594 406.925781 96.3125 408.105469 95.976562 C 428.898438 89.789062 448.535156 93.511719 467.121094 103.632812 C 494.460938 118.503906 513.175781 141.335938 525.90625 169.355469 C 534.738281 188.796875 539.539062 209.242188 537.972656 230.609375 C 537.433594 238.1875 539.074219 243.554688 543.671875 249.667969 C 552.78125 261.765625 555.425781 276.507812 557.019531 291.328125 C 558.378906 303.886719 557.738281 316.316406 554.863281 328.644531 C 554.554688 329.953125 554.863281 330.597656 556.121094 331.265625 C 570.546875 338.660156 580.582031 350.039062 586.460938 365.113281 C 587.050781 366.628906 587.925781 367.144531 589.464844 367.375 C 596.960938 368.53125 604.457031 368.402344 611.925781 367.476562 C 619.164062 366.605469 622.347656 369.558594 621.554688 376.671875 C 620.707031 384.351562 619.421875 385.378906 609.15625 386.253906 C 611.257812 389.695312 614.238281 391.824219 617.726562 393.238281 C 620.039062 394.164062 621.140625 395.703125 621.015625 398.09375 C 620.039062 415.378906 614.957031 430.992188 600.683594 441.882812 C 590.03125 450.023438 585.023438 450.230469 574.140625 440.753906 C 563.925781 431.867188 559.328125 419.871094 558.429688 406.542969 C 558.226562 403.304688 557.53125 403.152344 554.632812 403.898438 C 536.457031 408.570312 515.945312 400.558594 505.214844 384.6875 C 498.078125 394.804688 490.199219 404.152344 480.675781 412.011719 C 459.011719 429.835938 434.03125 440.519531 406.746094 445.8125 C 363.464844 454.234375 321.648438 449.640625 281.679688 430.554688 C 274.339844 427.039062 267.382812 422.824219 260.707031 418.152344 C 259.734375 417.457031 258.910156 416.429688 257.578125 416.328125 C 254.265625 437.953125 242.226562 452.746094 222.433594 461.402344 C 221.046875 462.019531 220.433594 462.710938 220.203125 464.355469 C 218.660156 474.601562 212.832031 481.71875 203.488281 485.828125 C 201.257812 486.804688 200.921875 487.804688 201.566406 489.707031 C 203.386719 495.046875 206.621094 499.15625 212.039062 501.261719 C 216.246094 502.90625 216.941406 504.730469 214.554688 508.660156 C 209.933594 516.3125 202.769531 520.472656 194.351562 522.503906 C 182.003906 525.457031 170.171875 524.148438 159.515625 516.828125 C 150.480469 510.636719 148.402344 504.523438 150.558594 492.300781 C 142.910156 491.554688 138.058594 487.46875 137.441406 481.410156 C 137.160156 478.636719 138.058594 476.785156 140.726562 475.863281 C 147.964844 473.34375 154.511719 469.363281 161.238281 465.792969 C 163.136719 464.792969 164.164062 463.636719 164.652344 461.375 C 165.78125 456.136719 168.269531 451.359375 172.582031 448.097656 C 175.253906 446.070312 175.097656 444.398438 174.125 441.574219 C 169.453125 428.269531 168.554688 414.710938 171.941406 400.941406 C 172.890625 397.140625 174.328125 393.546875 176.84375 390.488281 C 177.871094 389.257812 177.742188 388.613281 176.714844 387.40625 C 164.601562 373.078125 159.644531 355.972656 157.644531 337.761719 C 156.949219 331.390625 157.230469 325.046875 158.363281 318.703125 C 159.003906 315.210938 157.234375 311.847656 156.566406 308.429688 C 146.65625 256.578125 152.996094 207.597656 183.3125 163.347656 C 208.699219 126.285156 244.382812 103.8125 287.585938 92.769531 C 300.933594 89.324219 314.589844 87.785156 328.324219 86.707031 Z M 439.605469 251.003906 C 438.601562 252.363281 436.832031 253.136719 436.550781 255.0625 C 431.644531 261.480469 424.742188 265.050781 417.554688 267.980469 C 397.503906 276.199219 376.507812 278.820312 354.996094 277.714844 C 344.316406 277.175781 333.816406 275.480469 324.035156 270.855469 C 319.289062 268.621094 319.03125 267.132812 321.265625 262.328125 C 325.886719 252.363281 324.320312 242.554688 320.160156 232.792969 C 318.183594 244.789062 313.332031 255.496094 306.476562 265.308594 C 293.386719 284.007812 276.265625 297.902344 255.753906 307.710938 C 254.007812 308.535156 252.570312 309.277344 252.007812 311.4375 C 245.921875 334.449219 246 357.332031 254.214844 379.78125 C 257.707031 389.359375 262.582031 398.324219 273.339844 401.945312 C 275.007812 402.511719 276.007812 403.949219 275.621094 405.796875 C 275.261719 407.621094 273.902344 408.570312 272.082031 408.570312 C 269.949219 408.570312 267.820312 408.492188 265.714844 408.261719 C 264.328125 408.109375 262.8125 407.570312 262.25 409.367188 C 261.734375 411.011719 263.429688 411.394531 264.328125 412.039062 C 267.304688 414.117188 270.257812 416.277344 273.414062 418.046875 C 325.832031 447.429688 380.304688 450.308594 436.214844 429.761719 C 460.035156 421 480.238281 406.746094 495.539062 386.019531 C 503.007812 375.902344 507.757812 364.859375 508.375 352.195312 C 508.785156 345.414062 507.910156 338.761719 505.882812 332.292969 C 502.289062 320.835938 495.511719 310.792969 491.457031 299.546875 C 490.636719 296.925781 489.839844 294.304688 489.019531 291.710938 C 484.65625 277.6875 481.316406 263.332031 476.261719 249.515625 C 471.460938 236.339844 464.117188 225.113281 451.15625 218.488281 C 447.84375 216.792969 444.480469 215.226562 440.527344 215.6875 C 444.710938 231.664062 444.429688 241.0625 439.605469 251.003906 Z M 248.539062 403.355469 C 248 402.664062 247.796875 402.148438 247.410156 401.917969 C 233.550781 393.339844 224.257812 381.117188 218.917969 365.808594 C 218.636719 365.011719 218.53125 364.164062 217.273438 364.140625 C 212.292969 364.011719 207.367188 362.777344 202.359375 364.214844 C 200.203125 364.832031 197.816406 364.753906 197.175781 362.03125 C 196.535156 359.207031 198.613281 358.078125 200.949219 357.410156 C 205.261719 356.175781 209.675781 356.382812 214.015625 356.894531 C 216.300781 357.179688 216.53125 356.535156 216.246094 354.609375 C 215.144531 346.570312 215.554688 338.609375 218.097656 330.851562 C 218.6875 329.105469 217.789062 329.003906 216.554688 328.824219 C 197.917969 326.230469 181.902344 338.636719 185.390625 359.4375 C 189.039062 381.296875 208.699219 400.710938 230.367188 404.640625 C 236.476562 405.773438 242.484375 405.875 248.539062 403.355469 Z M 496.027344 291.148438 C 498.234375 287.882812 499.980469 285.164062 501.878906 282.542969 C 503.214844 280.746094 504.984375 279.230469 507.269531 280.820312 C 509.683594 282.515625 508.914062 284.675781 507.449219 286.703125 C 505.0625 290.066406 502.933594 293.585938 501.007812 297.257812 C 499.800781 299.570312 499.621094 301.574219 500.800781 303.960938 C 503.957031 310.332031 507.066406 316.753906 509.914062 323.277344 C 510.890625 325.511719 511.582031 325.535156 513.226562 323.996094 C 518.949219 318.628906 522.621094 312 524.777344 304.578125 C 528.242188 292.585938 528.757812 280.640625 522.621094 269.238281 C 520.257812 264.820312 516.820312 261.429688 511.683594 260.171875 C 504.882812 258.527344 493.046875 264.820312 490.867188 271.34375 C 490.609375 272.113281 490.6875 273.117188 490.917969 273.914062 C 492.535156 279.433594 494.179688 284.90625 496.027344 291.148438 Z M 436.550781 255.035156 C 436.804688 255.011719 437.164062 254.882812 437.269531 254.984375 C 440.785156 259.015625 440.757812 258.992188 445.789062 256.0625 C 449.539062 253.878906 453.464844 253.109375 457.546875 255.136719 C 460.78125 256.757812 462.398438 259.660156 463.527344 262.945312 C 464.246094 265.027344 465.53125 266.566406 467.96875 265.824219 C 470.585938 265 470.640625 262.996094 470.023438 260.660156 C 467.507812 250.902344 458.367188 245.328125 448.535156 247.433594 C 445.300781 248.125 442.734375 250.234375 439.578125 251.003906 C 438.601562 252.339844 436.832031 253.136719 436.550781 255.035156 Z M 369.730469 369.457031 C 364.210938 365.292969 362.105469 356.203125 364.671875 347.574219 C 369.0625 342.207031 373.476562 340.945312 379.871094 343.773438 C 389.46875 348.035156 395.269531 355.867188 398.8125 365.449219 C 399.558594 367.476562 400.175781 368.195312 402.355469 367.941406 C 413.007812 366.757812 422.710938 363.90625 428.769531 353.992188 C 429.898438 352.171875 431.671875 351.375 433.570312 352.476562 C 435.703125 353.6875 435.648438 355.792969 434.648438 357.742188 C 431.621094 363.523438 426.84375 367.476562 421.042969 370.148438 C 407.875 376.234375 394.21875 376.390625 380.382812 372.871094 C 376.761719 371.996094 373.273438 370.609375 369.730469 369.457031 Z M 392.242188 367.835938 C 391.675781 366.449219 391.34375 365.371094 390.832031 364.394531 C 387.699219 358.386719 383.617188 353.222656 377.300781 350.320312 C 375.300781 349.398438 373.015625 348.394531 371.242188 350.9375 C 369.445312 353.558594 370.757812 361.648438 373.554688 363.007812 C 379.304688 365.832031 385.441406 367.375 392.242188 367.835938 Z M 351.914062 310.5625 C 345.035156 303.988281 335.253906 306.070312 330.96875 314.570312 C 329.53125 317.421875 329.144531 320.503906 328.707031 323.585938 C 328.863281 327.617188 329.710938 331.519531 331.609375 335.089844 C 334.457031 340.40625 338.488281 344.386719 344.90625 344.695312 C 351.015625 344.980469 354.789062 341.382812 357.5625 336.375 C 360.769531 326.667969 359.488281 317.78125 351.914062 310.5625 Z M 449.898438 294.691406 C 447.074219 289.992188 443.144531 286.753906 437.34375 287.550781 C 431.621094 288.347656 428.386719 292.355469 427 297.671875 C 424.636719 306.839844 426.769531 314.722656 434.367188 320.785156 C 442.273438 324.304688 448.972656 321.324219 451.847656 313.105469 C 453.386719 308.6875 453.207031 304.269531 452.128906 299.828125 C 451.386719 298.105469 450.847656 296.28125 449.898438 294.691406 Z M 295.515625 295.410156 C 295.15625 297.671875 295.363281 299.929688 297.929688 300.597656 C 300.523438 301.265625 301.625 299.492188 302.34375 297.183594 C 306.195312 284.90625 312.792969 280.488281 325.292969 281.644531 C 327.21875 281.824219 328.914062 281.4375 329.425781 279.332031 C 329.914062 277.355469 328.914062 275.941406 327.167969 275.070312 C 325.21875 274.09375 323.136719 273.785156 321.289062 273.863281 C 309.457031 273.683594 297.339844 283.902344 295.515625 295.410156 Z M 409.132812 323.300781 C 406.976562 323.378906 403.355469 328.363281 403.589844 330.957031 C 403.769531 332.933594 404.769531 334.242188 406.953125 334.21875 C 409.234375 334.191406 412.726562 329.59375 412.675781 326.128906 C 412.546875 324.507812 411.445312 323.226562 409.132812 323.300781 Z M 409.132812 323.300781 " fill-opacity="1" fill-rule="nonzero"/></g><path fill="#f88686" d="M 392.242188 367.835938 C 385.464844 367.375 379.304688 365.832031 373.554688 363.035156 C 370.730469 361.671875 369.421875 353.558594 371.242188 350.964844 C 373.015625 348.421875 375.300781 349.421875 377.300781 350.347656 C 383.644531 353.25 387.699219 358.410156 390.832031 364.421875 C 391.34375 365.371094 391.675781 366.449219 392.242188 367.835938 Z M 392.242188 367.835938 " fill-opacity="1" fill-rule="nonzero"/></svg>