<svg xmlns="http://www.w3.org/2000/svg" xmlns:xlink="http://www.w3.org/1999/xlink" width="500" zoomAndPan="magnify" viewBox="0 0 375 374.999991" height="500" preserveAspectRatio="xMidYMid meet" version="1.0"><defs><clipPath id="id1"><path d="M 132.621094 328 L 161 328 L 161 330 L 132.621094 330 Z M 132.621094 328 " clip-rule="nonzero"/></clipPath><clipPath id="id2"><path d="M 132.621094 306 L 161 306 L 161 308 L 132.621094 308 Z M 132.621094 306 " clip-rule="nonzero"/></clipPath><clipPath id="id3"><path d="M 132.621094 283 L 161 283 L 161 286 L 132.621094 286 Z M 132.621094 283 " clip-rule="nonzero"/></clipPath><clipPath id="id4"><path d="M 132.621094 262 L 161 262 L 161 263 L 132.621094 263 Z M 132.621094 262 " clip-rule="nonzero"/></clipPath><clipPath id="id5"><path d="M 132.621094 239 L 161 239 L 161 241 L 132.621094 241 Z M 132.621094 239 " clip-rule="nonzero"/></clipPath><clipPath id="id6"><path d="M 132.621094 217 L 161 217 L 161 219 L 132.621094 219 Z M 132.621094 217 " clip-rule="nonzero"/></clipPath><clipPath id="id7"><path d="M 132.621094 195 L 161 195 L 161 197 L 132.621094 197 Z M 132.621094 195 " clip-rule="nonzero"/></clipPath><clipPath id="id8"><path d="M 132.621094 173 L 161 173 L 161 175 L 132.621094 175 Z M 132.621094 173 " clip-rule="nonzero"/></clipPath><clipPath id="id9"><path d="M 132.621094 151 L 161 151 L 161 153 L 132.621094 153 Z M 132.621094 151 " clip-rule="nonzero"/></clipPath><clipPath id="id10"><path d="M 132.621094 129 L 161 129 L 161 131 L 132.621094 131 Z M 132.621094 129 " clip-rule="nonzero"/></clipPath><clipPath id="id11"><path d="M 132.621094 107 L 161 107 L 161 109 L 132.621094 109 Z M 132.621094 107 " clip-rule="nonzero"/></clipPath><clipPath id="id12"><path d="M 132.621094 84 L 161 84 L 161 87 L 132.621094 87 Z M 132.621094 84 " clip-rule="nonzero"/></clipPath><clipPath id="id13"><path d="M 132.621094 62 L 161 62 L 161 64 L 132.621094 64 Z M 132.621094 62 " clip-rule="nonzero"/></clipPath><clipPath id="id14"><path d="M 132.621094 40 L 161 40 L 161 42 L 132.621094 42 Z M 132.621094 40 " clip-rule="nonzero"/></clipPath><clipPath id="id15"><path d="M 132.621094 18 L 161 18 L 161 20 L 132.621094 20 Z M 132.621094 18 " clip-rule="nonzero"/></clipPath><clipPath id="id16"><path d="M 167 72 L 167.871094 72 L 167.871094 99 L 167 99 Z M 167 72 " clip-rule="nonzero"/></clipPath></defs><path fill="#225c97" d="M 146.601562 341.734375 L 160.234375 341.734375 L 160.234375 338.429688 L 146.601562 338.429688 " fill-opacity="1" fill-rule="nonzero"/><g clip-path="url(#id1)"><path fill="#225c97" d="M 132.554688 329.347656 L 160.234375 329.347656 L 160.234375 328.523438 L 132.554688 328.523438 " fill-opacity="1" fill-rule="nonzero"/></g><path fill="#225c97" d="M 146.601562 319.441406 L 160.234375 319.441406 L 160.234375 316.136719 L 146.601562 316.136719 " fill-opacity="1" fill-rule="nonzero"/><g clip-path="url(#id2)"><path fill="#225c97" d="M 132.554688 307.46875 L 160.234375 307.46875 L 160.234375 306.230469 L 132.554688 306.230469 " fill-opacity="1" fill-rule="nonzero"/></g><path fill="#225c97" d="M 146.601562 297.558594 L 160.234375 297.558594 L 160.234375 294.257812 L 146.601562 294.257812 " fill-opacity="1" fill-rule="nonzero"/><g clip-path="url(#id3)"><path fill="#225c97" d="M 132.554688 285.175781 L 160.234375 285.175781 L 160.234375 283.9375 L 132.554688 283.9375 " fill-opacity="1" fill-rule="nonzero"/></g><path fill="#225c97" d="M 146.601562 275.265625 L 160.234375 275.265625 L 160.234375 271.964844 L 146.601562 271.964844 " fill-opacity="1" fill-rule="nonzero"/><g clip-path="url(#id4)"><path fill="#225c97" d="M 132.554688 262.882812 L 160.234375 262.882812 L 160.234375 262.054688 L 132.554688 262.054688 " fill-opacity="1" fill-rule="nonzero"/></g><path fill="#225c97" d="M 146.601562 252.972656 L 160.234375 252.972656 L 160.234375 249.671875 L 146.601562 249.671875 " fill-opacity="1" fill-rule="nonzero"/><g clip-path="url(#id5)"><path fill="#225c97" d="M 132.554688 241 L 160.234375 241 L 160.234375 239.761719 L 132.554688 239.761719 " fill-opacity="1" fill-rule="nonzero"/></g><path fill="#225c97" d="M 146.601562 231.09375 L 160.234375 231.09375 L 160.234375 227.792969 L 146.601562 227.792969 " fill-opacity="1" fill-rule="nonzero"/><g clip-path="url(#id6)"><path fill="#225c97" d="M 132.554688 218.707031 L 160.234375 218.707031 L 160.234375 217.882812 L 132.554688 217.882812 " fill-opacity="1" fill-rule="nonzero"/></g><path fill="#225c97" d="M 146.601562 208.800781 L 160.234375 208.800781 L 160.234375 205.5 L 146.601562 205.5 " fill-opacity="1" fill-rule="nonzero"/><g clip-path="url(#id7)"><path fill="#225c97" d="M 132.554688 196.828125 L 160.234375 196.828125 L 160.234375 195.589844 L 132.554688 195.589844 " fill-opacity="1" fill-rule="nonzero"/></g><path fill="#225c97" d="M 146.601562 186.921875 L 160.234375 186.921875 L 160.234375 183.617188 L 146.601562 183.617188 " fill-opacity="1" fill-rule="nonzero"/><g clip-path="url(#id8)"><path fill="#225c97" d="M 132.554688 174.535156 L 160.234375 174.535156 L 160.234375 173.296875 L 132.554688 173.296875 " fill-opacity="1" fill-rule="nonzero"/></g><path fill="#225c97" d="M 146.601562 164.628906 L 160.234375 164.628906 L 160.234375 161.324219 L 146.601562 161.324219 " fill-opacity="1" fill-rule="nonzero"/><g clip-path="url(#id9)"><path fill="#225c97" d="M 132.554688 152.242188 L 160.234375 152.242188 L 160.234375 151.417969 L 132.554688 151.417969 " fill-opacity="1" fill-rule="nonzero"/></g><path fill="#225c97" d="M 146.601562 142.335938 L 160.234375 142.335938 L 160.234375 139.03125 L 146.601562 139.03125 " fill-opacity="1" fill-rule="nonzero"/><g clip-path="url(#id10)"><path fill="#225c97" d="M 132.554688 130.363281 L 160.234375 130.363281 L 160.234375 129.125 L 132.554688 129.125 " fill-opacity="1" fill-rule="nonzero"/></g><path fill="#225c97" d="M 146.601562 120.453125 L 160.234375 120.453125 L 160.234375 117.152344 L 146.601562 117.152344 " fill-opacity="1" fill-rule="nonzero"/><g clip-path="url(#id11)"><path fill="#225c97" d="M 132.554688 108.070312 L 160.234375 108.070312 L 160.234375 107.246094 L 132.554688 107.246094 " fill-opacity="1" fill-rule="nonzero"/></g><path fill="#225c97" d="M 146.601562 98.160156 L 160.234375 98.160156 L 160.234375 94.859375 L 146.601562 94.859375 " fill-opacity="1" fill-rule="nonzero"/><g clip-path="url(#id12)"><path fill="#225c97" d="M 132.554688 86.191406 L 160.234375 86.191406 L 160.234375 84.953125 L 132.554688 84.953125 " fill-opacity="1" fill-rule="nonzero"/></g><path fill="#225c97" d="M 146.601562 76.28125 L 160.234375 76.28125 L 160.234375 72.980469 L 146.601562 72.980469 " fill-opacity="1" fill-rule="nonzero"/><g clip-path="url(#id13)"><path fill="#225c97" d="M 132.554688 63.898438 L 160.234375 63.898438 L 160.234375 62.660156 L 132.554688 62.660156 " fill-opacity="1" fill-rule="nonzero"/></g><path fill="#225c97" d="M 146.601562 53.988281 L 160.234375 53.988281 L 160.234375 50.6875 L 146.601562 50.6875 " fill-opacity="1" fill-rule="nonzero"/><g clip-path="url(#id14)"><path fill="#225c97" d="M 132.554688 41.605469 L 160.234375 41.605469 L 160.234375 40.777344 L 132.554688 40.777344 " fill-opacity="1" fill-rule="nonzero"/></g><path fill="#225c97" d="M 146.601562 31.695312 L 160.234375 31.695312 L 160.234375 28.394531 L 146.601562 28.394531 " fill-opacity="1" fill-rule="nonzero"/><g clip-path="url(#id15)"><path fill="#225c97" d="M 132.554688 19.722656 L 160.234375 19.722656 L 160.234375 18.484375 L 132.554688 18.484375 " fill-opacity="1" fill-rule="nonzero"/></g><g clip-path="url(#id16)"><path fill="#225c97" d="M 167.257812 85.363281 L 209.804688 72.152344 L 209.804688 98.988281 L 167.257812 85.363281 " fill-opacity="1" fill-rule="nonzero"/></g></svg>