<svg xmlns="http://www.w3.org/2000/svg" xmlns:xlink="http://www.w3.org/1999/xlink" width="500" zoomAndPan="magnify" viewBox="0 0 375 374.999991" height="500" preserveAspectRatio="xMidYMid meet" version="1.0"><defs><clipPath id="id1"><path d="M 176.175781 110.210938 L 188.1875 110.210938 L 188.1875 136.648438 L 176.175781 136.648438 Z M 176.175781 110.210938 " clip-rule="nonzero"/></clipPath><clipPath id="id2"><path d="M 181.429688 136.511719 L 183.382812 136.386719 C 186.125 136.207031 188.21875 134.464844 187.996094 132.542969 C 187.371094 129.125 183.816406 110.074219 180.707031 110.277344 C 177.59375 110.480469 176.535156 129.832031 176.359375 133.300781 C 176.386719 135.234375 178.6875 136.691406 181.429688 136.511719 Z M 181.429688 136.511719 " clip-rule="nonzero"/></clipPath><clipPath id="id3"><path d="M 181.429688 136.511719 L 183.382812 136.386719 C 186.125 136.207031 188.21875 134.464844 187.996094 132.542969 C 187.371094 129.125 183.816406 110.074219 180.707031 110.277344 C 177.59375 110.480469 176.535156 129.832031 176.359375 133.300781 C 176.386719 135.234375 178.6875 136.691406 181.429688 136.511719 " clip-rule="nonzero"/></clipPath><clipPath id="id4"><path d="M 176.410156 137.457031 L 189.941406 136.578125 L 188.167969 109.308594 L 174.636719 110.1875 Z M 176.410156 137.457031 " clip-rule="nonzero"/></clipPath><linearGradient x1="-0.0221331" gradientTransform="matrix(-1.700801, -26.171296, 26.159066, -1.701596, 182.40034, 136.441577)" y1="0" x2="1.01303" gradientUnits="userSpaceOnUse" y2="0" id="id5"><stop stop-opacity="1" stop-color="rgb(93.299866%, 46.299744%, 32.899475%)" offset="0"/><stop stop-opacity="1" stop-color="rgb(93.299866%, 46.299744%, 32.899475%)" offset="0.25"/><stop stop-opacity="1" stop-color="rgb(93.299866%, 46.299744%, 32.899475%)" offset="0.3125"/><stop stop-opacity="1" stop-color="rgb(93.299866%, 46.299744%, 32.899475%)" offset="0.34375"/><stop stop-opacity="1" stop-color="rgb(93.299866%, 46.652222%, 32.899475%)" offset="0.347656"/><stop stop-opacity="1" stop-color="rgb(93.299866%, 47.0047%, 32.899475%)" offset="0.351563"/><stop stop-opacity="1" stop-color="rgb(93.299866%, 47.242737%, 32.899475%)" offset="0.355469"/><stop stop-opacity="1" stop-color="rgb(93.299866%, 47.480774%, 32.899475%)" offset="0.359375"/><stop stop-opacity="1" stop-color="rgb(93.499756%, 47.624207%, 32.899475%)" offset="0.363281"/><stop stop-opacity="1" stop-color="rgb(93.699646%, 47.767639%, 32.899475%)" offset="0.367188"/><stop stop-opacity="1" stop-color="rgb(93.699646%, 47.949219%, 32.899475%)" offset="0.375"/><stop stop-opacity="1" stop-color="rgb(93.699646%, 48.365784%, 33.099365%)" offset="0.378906"/><stop stop-opacity="1" stop-color="rgb(93.699646%, 48.599243%, 33.299255%)" offset="0.382812"/><stop stop-opacity="1" stop-color="rgb(93.699646%, 48.799133%, 33.299255%)" offset="0.386719"/><stop stop-opacity="1" stop-color="rgb(93.699646%, 48.999023%, 33.299255%)" offset="0.390625"/><stop stop-opacity="1" stop-color="rgb(93.873596%, 49.198914%, 33.299255%)" offset="0.394531"/><stop stop-opacity="1" stop-color="rgb(94.047546%, 49.398804%, 33.299255%)" offset="0.398438"/><stop stop-opacity="1" stop-color="rgb(94.073486%, 49.598694%, 33.299255%)" offset="0.402344"/><stop stop-opacity="1" stop-color="rgb(94.099426%, 49.798584%, 33.299255%)" offset="0.40625"/><stop stop-opacity="1" stop-color="rgb(94.099426%, 50.15564%, 33.299255%)" offset="0.410156"/><stop stop-opacity="1" stop-color="rgb(94.099426%, 50.512695%, 33.299255%)" offset="0.414063"/><stop stop-opacity="1" stop-color="rgb(94.099426%, 50.700378%, 33.299255%)" offset="0.421875"/><stop stop-opacity="1" stop-color="rgb(94.099426%, 51.077271%, 33.299255%)" offset="0.429688"/><stop stop-opacity="1" stop-color="rgb(94.219971%, 51.452637%, 33.299255%)" offset="0.4375"/><stop stop-opacity="1" stop-color="rgb(94.419861%, 51.879883%, 33.299255%)" offset="0.441406"/><stop stop-opacity="1" stop-color="rgb(94.499207%, 52.11792%, 33.299255%)" offset="0.445312"/><stop stop-opacity="1" stop-color="rgb(94.499207%, 52.308655%, 33.499146%)" offset="0.449219"/><stop stop-opacity="1" stop-color="rgb(94.499207%, 52.49939%, 33.699036%)" offset="0.453125"/><stop stop-opacity="1" stop-color="rgb(94.499207%, 52.69928%, 33.699036%)" offset="0.457031"/><stop stop-opacity="1" stop-color="rgb(94.499207%, 52.89917%, 33.699036%)" offset="0.460938"/><stop stop-opacity="1" stop-color="rgb(94.499207%, 53.09906%, 33.699036%)" offset="0.464844"/><stop stop-opacity="1" stop-color="rgb(94.499207%, 53.29895%, 33.699036%)" offset="0.46875"/><stop stop-opacity="1" stop-color="rgb(94.610596%, 53.49884%, 33.699036%)" offset="0.472656"/><stop stop-opacity="1" stop-color="rgb(94.721985%, 53.69873%, 33.699036%)" offset="0.476562"/><stop stop-opacity="1" stop-color="rgb(94.810486%, 54.048157%, 33.699036%)" offset="0.480469"/><stop stop-opacity="1" stop-color="rgb(94.898987%, 54.397583%, 33.699036%)" offset="0.484375"/><stop stop-opacity="1" stop-color="rgb(94.898987%, 54.585266%, 33.699036%)" offset="0.492187"/><stop stop-opacity="1" stop-color="rgb(94.898987%, 54.962158%, 33.699036%)" offset="0.5"/><stop stop-opacity="1" stop-color="rgb(94.898987%, 55.337524%, 33.699036%)" offset="0.507812"/><stop stop-opacity="1" stop-color="rgb(94.999695%, 55.714417%, 33.699036%)" offset="0.515625"/><stop stop-opacity="1" stop-color="rgb(95.199585%, 56.199646%, 33.818054%)" offset="0.519531"/><stop stop-opacity="1" stop-color="rgb(95.298767%, 56.498718%, 33.938599%)" offset="0.523438"/><stop stop-opacity="1" stop-color="rgb(95.298767%, 56.698608%, 34.017944%)" offset="0.527344"/><stop stop-opacity="1" stop-color="rgb(95.298767%, 56.898499%, 34.098816%)" offset="0.53125"/><stop stop-opacity="1" stop-color="rgb(95.298767%, 57.098389%, 34.098816%)" offset="0.535156"/><stop stop-opacity="1" stop-color="rgb(95.298767%, 57.299805%, 34.098816%)" offset="0.539062"/><stop stop-opacity="1" stop-color="rgb(95.298767%, 57.449341%, 34.098816%)" offset="0.546875"/><stop stop-opacity="1" stop-color="rgb(95.39032%, 57.89032%, 34.098816%)" offset="0.550781"/><stop stop-opacity="1" stop-color="rgb(95.483398%, 58.183289%, 34.098816%)" offset="0.554688"/><stop stop-opacity="1" stop-color="rgb(95.59021%, 58.370972%, 34.098816%)" offset="0.5625"/><stop stop-opacity="1" stop-color="rgb(95.698547%, 58.796692%, 34.098816%)" offset="0.566406"/><stop stop-opacity="1" stop-color="rgb(95.698547%, 59.034729%, 34.098816%)" offset="0.570312"/><stop stop-opacity="1" stop-color="rgb(95.698547%, 59.222412%, 34.098816%)" offset="0.578125"/><stop stop-opacity="1" stop-color="rgb(95.698547%, 59.599304%, 34.098816%)" offset="0.585937"/><stop stop-opacity="1" stop-color="rgb(95.780945%, 60.092163%, 34.181213%)" offset="0.589844"/><stop stop-opacity="1" stop-color="rgb(95.863342%, 60.398865%, 34.263611%)" offset="0.59375"/><stop stop-opacity="1" stop-color="rgb(95.980835%, 60.598755%, 34.381104%)" offset="0.597656"/><stop stop-opacity="1" stop-color="rgb(96.099854%, 60.798645%, 34.498596%)" offset="0.601562"/><stop stop-opacity="1" stop-color="rgb(96.099854%, 60.998535%, 34.498596%)" offset="0.605469"/><stop stop-opacity="1" stop-color="rgb(96.099854%, 61.199951%, 34.498596%)" offset="0.609375"/><stop stop-opacity="1" stop-color="rgb(96.099854%, 61.399841%, 34.498596%)" offset="0.613281"/><stop stop-opacity="1" stop-color="rgb(96.099854%, 61.599731%, 34.498596%)" offset="0.617187"/><stop stop-opacity="1" stop-color="rgb(96.099854%, 61.883545%, 34.498596%)" offset="0.621094"/><stop stop-opacity="1" stop-color="rgb(96.099854%, 62.168884%, 34.498596%)" offset="0.625"/><stop stop-opacity="1" stop-color="rgb(96.17157%, 62.338257%, 34.498596%)" offset="0.632813"/><stop stop-opacity="1" stop-color="rgb(96.37146%, 62.663269%, 34.498596%)" offset="0.640625"/><stop stop-opacity="1" stop-color="rgb(96.499634%, 63.024902%, 34.498596%)" offset="0.644531"/><stop stop-opacity="1" stop-color="rgb(96.499634%, 63.22937%, 34.498596%)" offset="0.648438"/><stop stop-opacity="1" stop-color="rgb(96.499634%, 63.450623%, 34.498596%)" offset="0.652344"/><stop stop-opacity="1" stop-color="rgb(96.499634%, 63.673401%, 34.498596%)" offset="0.65625"/><stop stop-opacity="1" stop-color="rgb(96.499634%, 63.986206%, 34.498596%)" offset="0.660156"/><stop stop-opacity="1" stop-color="rgb(96.499634%, 64.299011%, 34.498596%)" offset="0.664062"/><stop stop-opacity="1" stop-color="rgb(96.562195%, 64.498901%, 34.698486%)" offset="0.667969"/><stop stop-opacity="1" stop-color="rgb(96.624756%, 64.698792%, 34.899902%)" offset="0.671875"/><stop stop-opacity="1" stop-color="rgb(96.762085%, 64.898682%, 34.899902%)" offset="0.675781"/><stop stop-opacity="1" stop-color="rgb(96.899414%, 65.098572%, 34.899902%)" offset="0.679688"/><stop stop-opacity="1" stop-color="rgb(96.899414%, 65.298462%, 34.899902%)" offset="0.683594"/><stop stop-opacity="1" stop-color="rgb(96.899414%, 65.499878%, 34.899902%)" offset="0.6875"/><stop stop-opacity="1" stop-color="rgb(96.899414%, 65.776062%, 34.899902%)" offset="0.691406"/><stop stop-opacity="1" stop-color="rgb(96.899414%, 66.053772%, 34.899902%)" offset="0.695312"/><stop stop-opacity="1" stop-color="rgb(96.899414%, 66.241455%, 34.899902%)" offset="0.703125"/><stop stop-opacity="1" stop-color="rgb(96.95282%, 66.616821%, 34.899902%)" offset="0.710938"/><stop stop-opacity="1" stop-color="rgb(97.15271%, 66.993713%, 34.899902%)" offset="0.71875"/><stop stop-opacity="1" stop-color="rgb(97.299194%, 67.36145%, 34.899902%)" offset="0.726562"/><stop stop-opacity="1" stop-color="rgb(97.299194%, 67.871094%, 34.899902%)" offset="0.730469"/><stop stop-opacity="1" stop-color="rgb(97.299194%, 68.199158%, 34.899902%)" offset="0.734375"/><stop stop-opacity="1" stop-color="rgb(97.299194%, 68.399048%, 35.099792%)" offset="0.738281"/><stop stop-opacity="1" stop-color="rgb(97.299194%, 68.598938%, 35.299683%)" offset="0.742187"/><stop stop-opacity="1" stop-color="rgb(97.331238%, 68.798828%, 35.299683%)" offset="0.746094"/><stop stop-opacity="1" stop-color="rgb(97.364807%, 68.998718%, 35.299683%)" offset="0.75"/><stop stop-opacity="1" stop-color="rgb(97.4823%, 69.198608%, 35.299683%)" offset="0.753906"/><stop stop-opacity="1" stop-color="rgb(97.599792%, 69.398499%, 35.299683%)" offset="0.757813"/><stop stop-opacity="1" stop-color="rgb(97.599792%, 69.618225%, 35.299683%)" offset="0.761719"/><stop stop-opacity="1" stop-color="rgb(97.599792%, 69.837952%, 35.299683%)" offset="0.765625"/><stop stop-opacity="1" stop-color="rgb(97.599792%, 70.028687%, 35.299683%)" offset="0.773438"/><stop stop-opacity="1" stop-color="rgb(97.599792%, 70.454407%, 35.299683%)" offset="0.777344"/><stop stop-opacity="1" stop-color="rgb(97.599792%, 70.690918%, 35.299683%)" offset="0.78125"/><stop stop-opacity="1" stop-color="rgb(97.633362%, 70.878601%, 35.299683%)" offset="0.789063"/><stop stop-opacity="1" stop-color="rgb(97.833252%, 71.253967%, 35.299683%)" offset="0.796875"/><stop stop-opacity="1" stop-color="rgb(97.999573%, 71.820068%, 35.299683%)" offset="0.800781"/><stop stop-opacity="1" stop-color="rgb(97.999573%, 72.198486%, 35.299683%)" offset="0.804688"/><stop stop-opacity="1" stop-color="rgb(97.999573%, 72.346497%, 35.299683%)" offset="0.8125"/><stop stop-opacity="1" stop-color="rgb(97.999573%, 72.697449%, 35.499573%)" offset="0.816406"/><stop stop-opacity="1" stop-color="rgb(97.999573%, 72.898865%, 35.699463%)" offset="0.820312"/><stop stop-opacity="1" stop-color="rgb(98.022461%, 73.098755%, 35.699463%)" offset="0.824219"/><stop stop-opacity="1" stop-color="rgb(98.046875%, 73.298645%, 35.699463%)" offset="0.828125"/><stop stop-opacity="1" stop-color="rgb(98.222351%, 73.510742%, 35.699463%)" offset="0.832031"/><stop stop-opacity="1" stop-color="rgb(98.399353%, 73.724365%, 35.699463%)" offset="0.835938"/><stop stop-opacity="1" stop-color="rgb(98.399353%, 73.912048%, 35.699463%)" offset="0.84375"/><stop stop-opacity="1" stop-color="rgb(98.399353%, 74.299622%, 35.699463%)" offset="0.847656"/><stop stop-opacity="1" stop-color="rgb(98.399353%, 74.499512%, 35.699463%)" offset="0.851562"/><stop stop-opacity="1" stop-color="rgb(98.399353%, 74.499512%, 35.699463%)" offset="0.859375"/><stop stop-opacity="1" stop-color="rgb(98.399353%, 74.499512%, 35.699463%)" offset="0.875"/><stop stop-opacity="1" stop-color="rgb(98.399353%, 74.499512%, 35.699463%)" offset="1"/></linearGradient><clipPath id="id6"><path d="M 31.191406 250 L 170 250 L 170 322 L 31.191406 322 Z M 31.191406 250 " clip-rule="nonzero"/></clipPath><clipPath id="id7"><path d="M 170.171875 146.058594 L 196 146.058594 L 196 151.265625 L 170.171875 151.265625 Z M 170.171875 146.058594 " clip-rule="nonzero"/></clipPath><clipPath id="id8"><path d="M 182.894531 140.574219 C 177.957031 140.878906 173.6875 140.5 170.355469 139.96875 C 169.953125 144.324219 170.140625 148.667969 172.6875 149.933594 C 175.921875 151.539062 180.347656 151.191406 183.574219 150.980469 C 186.796875 150.769531 191.226562 150.542969 194.226562 148.53125 C 196.589844 146.945312 196.210938 142.617188 195.25 138.347656 C 192.015625 139.308594 187.832031 140.238281 182.894531 140.574219 Z M 182.894531 140.574219 " clip-rule="nonzero"/></clipPath><clipPath id="id9"><path d="M 170.171875 138.25 L 196 138.25 L 196 143.457031 L 170.171875 143.457031 Z M 170.171875 138.25 " clip-rule="nonzero"/></clipPath><clipPath id="id10"><path d="M 182.894531 140.574219 C 177.957031 140.878906 173.6875 140.5 170.355469 139.96875 C 169.953125 144.324219 170.140625 148.667969 172.6875 149.933594 C 175.921875 151.539062 180.347656 151.191406 183.574219 150.980469 C 186.796875 150.769531 191.226562 150.542969 194.226562 148.53125 C 196.589844 146.945312 196.210938 142.617188 195.25 138.347656 C 192.015625 139.308594 187.832031 140.238281 182.894531 140.574219 Z M 182.894531 140.574219 " clip-rule="nonzero"/></clipPath></defs><path fill="#a8d7d0" d="M 274.421875 222.902344 C 275.292969 222.894531 280.730469 221.363281 297.113281 208.984375 C 307.78125 200.917969 313.542969 196.300781 319.152344 190.996094 C 330.710938 180.078125 343.882812 165.835938 340.984375 161.878906 C 338.703125 158.769531 326.46875 164.234375 323.113281 165.734375 C 317.148438 168.398438 303.53125 177.292969 290.375 193.300781 C 277.238281 209.28125 273.140625 222.90625 274.421875 222.902344 " fill-opacity="1" fill-rule="nonzero"/><path fill="#a8d7d0" d="M 273.03125 208.128906 C 269.390625 210.511719 274.554688 173.796875 283.234375 150.835938 C 292.945312 125.136719 306.566406 109.339844 310.753906 111.191406 C 314.601562 112.890625 310.273438 132.011719 299.066406 158.695312 C 288.742188 183.285156 277.207031 205.398438 273.03125 208.128906 " fill-opacity="1" fill-rule="nonzero"/><path fill="#a8d7d0" d="M 264.207031 144.695312 C 262.167969 144.527344 260.898438 130.925781 261.214844 120.609375 C 261.84375 100.078125 265.011719 83.789062 269.90625 71.117188 C 275.867188 55.675781 284.476562 47.003906 287.640625 48.988281 C 291.988281 51.71875 283.511719 81.425781 280.5625 92.894531 C 275.578125 112.28125 265.566406 144.808594 264.207031 144.695312 " fill-opacity="1" fill-rule="nonzero"/><path fill="#a8d7d0" d="M 263.1875 216.90625 C 266.066406 216.328125 264.03125 189 256.769531 160.9375 C 248.910156 130.597656 227.875 107.75 223.808594 109.636719 C 219.976562 111.414062 225.894531 132.980469 232.984375 150.460938 C 238.011719 162.855469 239.882812 167.925781 247.351562 185.433594 C 256.589844 207.089844 261.351562 217.273438 263.1875 216.90625 " fill-opacity="1" fill-rule="nonzero"/><path fill="#34a6c4" d="M 271.816406 250.710938 C 271.730469 248.796875 271.6875 246.976562 271.6875 245.25 C 271.683594 233.328125 273.644531 225.871094 274.878906 223.105469 C 275.878906 220.835938 278.945312 217.332031 283.339844 212.996094 C 287.730469 208.648438 293.457031 203.429688 299.800781 197.574219 C 308.410156 189.628906 315.226562 182.574219 320.871094 177.675781 C 321.078125 177.492188 321.101562 177.175781 320.917969 176.96875 C 320.738281 176.757812 320.421875 176.738281 320.214844 176.917969 C 314.515625 181.867188 307.710938 188.914062 299.121094 196.84375 C 292.78125 202.695312 287.054688 207.914062 282.636719 212.285156 C 278.214844 216.664062 275.109375 220.144531 273.96875 222.699219 C 272.648438 225.675781 270.695312 233.207031 270.691406 245.25 C 270.691406 246.992188 270.730469 248.828125 270.820312 250.761719 C 270.835938 251.035156 271.070312 251.246094 271.34375 251.234375 C 271.621094 251.222656 271.832031 250.988281 271.820312 250.710938 L 271.816406 250.710938 " fill-opacity="1" fill-rule="nonzero"/><path fill="#300c46" d="M 252.503906 309.265625 L 286.515625 309.265625 L 286.515625 248.382812 L 252.503906 248.382812 L 252.503906 309.265625 " fill-opacity="1" fill-rule="nonzero"/><path fill="#34a6c4" d="M 269.464844 247.738281 C 269.464844 229.125 270.636719 219.882812 273.515625 208.25 L 273.527344 208.207031 C 274.097656 204.6875 276.347656 196.683594 279.222656 187.875 C 282.097656 179.058594 285.601562 169.402344 288.683594 162.511719 C 291.925781 155.253906 295.039062 148.285156 298.304688 141.761719 C 298.429688 141.515625 298.328125 141.214844 298.082031 141.09375 C 297.835938 140.96875 297.535156 141.070312 297.410156 141.316406 C 294.132812 147.867188 291.015625 154.847656 287.769531 162.105469 C 284.664062 169.054688 281.15625 178.722656 278.273438 187.5625 C 275.390625 196.410156 273.136719 204.394531 272.539062 208.046875 L 273.03125 208.128906 L 272.546875 208.007812 C 269.648438 219.707031 268.464844 229.09375 268.46875 247.738281 C 268.46875 248.015625 268.6875 248.238281 268.964844 248.238281 C 269.242188 248.238281 269.464844 248.015625 269.464844 247.738281 " fill-opacity="1" fill-rule="nonzero"/><path fill="#34a6c4" d="M 244.800781 155.160156 C 249.84375 167.683594 260.75 199.34375 263.097656 216.671875 C 264.832031 229.480469 265.332031 238.222656 266.273438 248.640625 C 266.300781 248.914062 266.542969 249.117188 266.816406 249.09375 C 267.089844 249.066406 267.292969 248.824219 267.269531 248.550781 C 266.328125 238.15625 265.824219 229.382812 264.085938 216.539062 C 261.703125 199.003906 250.792969 167.386719 245.726562 154.789062 C 245.625 154.53125 245.332031 154.40625 245.078125 154.511719 C 244.820312 154.613281 244.695312 154.902344 244.800781 155.160156 " fill-opacity="1" fill-rule="nonzero"/><path fill="#34a6c4" d="M 276.40625 73.890625 C 273.359375 83.589844 269.613281 97.324219 266.921875 114.109375 C 266.816406 114.757812 264.679688 130.148438 263.707031 144.664062 L 263.703125 144.703125 C 263.945312 173.15625 267.535156 238.195312 268.46875 248.425781 C 268.492188 248.703125 268.738281 248.90625 269.011719 248.878906 C 269.285156 248.855469 269.488281 248.609375 269.464844 248.335938 C 268.535156 238.167969 264.941406 173.085938 264.703125 144.695312 L 264.203125 144.699219 L 264.703125 144.730469 C 265.671875 130.273438 267.8125 114.859375 267.90625 114.261719 C 270.589844 97.539062 274.320312 83.859375 277.363281 74.191406 C 277.445312 73.925781 277.296875 73.644531 277.035156 73.5625 C 276.769531 73.480469 276.488281 73.628906 276.40625 73.890625 " fill-opacity="1" fill-rule="nonzero"/><path fill="#b42673" d="M 247.039062 253.949219 L 291.980469 253.949219 L 291.980469 242.8125 L 247.039062 242.8125 L 247.039062 253.949219 " fill-opacity="1" fill-rule="nonzero"/><path fill="#300c46" d="M 236.003906 139.585938 C 233.207031 134.554688 226.234375 126.546875 215.546875 119.683594 C 216.949219 115.601562 217.585938 111.160156 217.285156 106.558594 C 216.109375 88.464844 200.972656 74.722656 183.472656 75.859375 C 165.972656 77 152.742188 92.585938 153.917969 110.679688 C 154.214844 115.28125 155.421875 119.601562 157.339844 123.472656 C 147.632812 131.660156 141.753906 140.503906 139.628906 145.855469 C 138.160156 149.558594 136.621094 157.371094 139.699219 160.136719 C 142.5625 162.707031 149.332031 158.855469 150.355469 158.261719 C 149.9375 159.238281 146.769531 166.867188 150.152344 172.449219 C 153.96875 178.746094 165.226562 180.957031 175.175781 173.859375 L 204.382812 171.957031 C 215.167969 177.710938 226.046875 174.054688 229.015625 167.320312 C 231.648438 161.347656 227.519531 154.191406 226.976562 153.277344 C 228.066406 153.734375 235.28125 156.675781 237.785156 153.753906 C 240.480469 150.613281 237.941406 143.066406 236.003906 139.585938 " fill-opacity="1" fill-rule="nonzero"/><path fill="#00365f" d="M 165.394531 268.011719 L 117.101562 278.984375 C 112.800781 279.960938 110.101562 284.242188 111.078125 288.550781 C 112.058594 292.851562 116.335938 295.550781 120.640625 294.574219 L 168.933594 283.605469 C 173.238281 282.628906 175.933594 278.34375 174.957031 274.039062 C 173.980469 269.734375 169.699219 267.035156 165.394531 268.011719 " fill-opacity="1" fill-rule="nonzero"/><path fill="#00365f" d="M 149.679688 250.179688 L 223.890625 250.179688 L 223.890625 262.761719 C 223.890625 276.445312 212.804688 287.535156 199.125 287.535156 L 174.445312 287.535156 C 160.769531 287.535156 149.679688 276.445312 149.679688 262.761719 L 149.679688 250.179688 " fill-opacity="1" fill-rule="nonzero"/><path fill="#34a6c4" d="M 254.742188 197.746094 C 248.980469 190.558594 241.605469 184.261719 234.839844 179.332031 C 231.457031 176.867188 228.230469 174.761719 225.414062 173.089844 C 224.003906 172.25 222.695312 171.519531 221.507812 170.90625 C 220.308594 170.289062 219.246094 169.785156 218.242188 169.382812 C 217.539062 169.105469 216.785156 168.960938 216.027344 168.960938 C 206.28125 168.960938 196.535156 168.960938 186.785156 168.960938 C 183.476562 168.960938 180.792969 171.644531 180.792969 174.957031 C 180.792969 178.269531 183.476562 180.953125 186.785156 180.953125 C 196.535156 180.953125 206.28125 180.953125 216.027344 180.953125 L 216.027344 174.957031 L 213.820312 180.53125 C 214.28125 180.710938 215.058594 181.070312 216 181.554688 C 217.648438 182.410156 219.832031 183.667969 222.261719 185.234375 C 225.910156 187.582031 230.140625 190.621094 234.230469 194.058594 C 238.324219 197.496094 242.273438 201.34375 245.382812 205.234375 C 247.449219 207.820312 251.222656 208.238281 253.804688 206.171875 C 256.390625 204.101562 256.808594 200.332031 254.742188 197.746094 " fill-opacity="1" fill-rule="nonzero"/><path fill="#006eae" d="M 121.65625 269.023438 C 123.636719 265.71875 125.523438 261.800781 127.445312 257.402344 C 130.324219 250.808594 133.257812 243.140625 136.332031 235.160156 C 139.40625 227.183594 142.617188 218.902344 145.980469 211.171875 C 149.824219 202.335938 152.5 195.210938 154.882812 189.910156 C 156.070312 187.261719 157.183594 185.078125 158.265625 183.367188 C 159.355469 181.652344 160.390625 180.417969 161.457031 179.496094 L 157.542969 174.957031 L 157.542969 180.953125 C 167.289062 180.953125 177.039062 180.953125 186.785156 180.953125 C 190.09375 180.953125 192.777344 178.269531 192.777344 174.957031 C 192.777344 171.644531 190.09375 168.960938 186.785156 168.960938 C 177.039062 168.960938 167.289062 168.960938 157.542969 168.960938 C 156.105469 168.960938 154.710938 169.480469 153.625 170.417969 C 151.449219 172.300781 149.675781 174.523438 148.136719 176.960938 C 145.832031 180.621094 143.984375 184.773438 141.964844 189.609375 C 139.949219 194.449219 137.78125 199.976562 134.992188 206.382812 C 130.328125 217.105469 126.078125 228.523438 122.132812 238.660156 C 120.164062 243.726562 118.269531 248.464844 116.464844 252.605469 C 114.660156 256.738281 112.929688 260.277344 111.382812 262.851562 C 109.675781 265.691406 110.59375 269.375 113.433594 271.078125 C 116.269531 272.78125 119.949219 271.863281 121.65625 269.027344 L 121.65625 269.023438 " fill-opacity="1" fill-rule="nonzero"/><path fill="#cccccc" d="M 121.117188 265.1875 C 122.542969 267.863281 120.644531 269.101562 119.253906 277.8125 C 118.53125 282.347656 118.34375 285.867188 116.347656 286.824219 C 115.746094 287.109375 115.1875 286.945312 115.027344 286.894531 C 113.683594 286.496094 113.035156 284.558594 113.332031 281.976562 C 112.742188 283.726562 111.933594 286.300781 111.195312 289.449219 C 110.222656 293.613281 110.109375 295.613281 108.710938 296.675781 C 107.472656 297.621094 105.402344 297.40625 104.066406 296.664062 C 99.367188 294.058594 100.09375 282.164062 103.558594 273.660156 C 104.710938 270.828125 108.648438 261.171875 114.773438 261.234375 C 117.320312 261.261719 119.933594 262.972656 121.117188 265.1875 " fill-opacity="1" fill-rule="nonzero"/><path fill="#006eae" d="M 186.785156 167.484375 L 158.960938 167.484375 C 153.835938 167.484375 149.679688 171.640625 149.679688 176.769531 L 149.679688 254.652344 C 150.410156 260.527344 168.660156 264.207031 186.785156 264.640625 L 186.785156 167.484375 " fill-opacity="1" fill-rule="nonzero"/><path fill="#34a6c4" d="M 186.785156 264.640625 C 204.910156 264.207031 223.160156 260.527344 223.890625 254.652344 L 223.890625 176.769531 C 223.890625 171.640625 219.738281 167.484375 214.609375 167.484375 L 186.785156 167.484375 L 186.785156 264.640625 " fill-opacity="1" fill-rule="nonzero"/><path fill="#fbbe5b" d="M 185.8125 179.234375 L 187.761719 179.234375 C 194.316406 179.234375 199.632812 173.921875 199.632812 167.359375 L 199.632812 152.386719 L 173.941406 152.386719 L 173.941406 167.359375 C 173.941406 173.921875 179.257812 179.234375 185.8125 179.234375 " fill-opacity="1" fill-rule="nonzero"/><path fill="#fbbe5b" d="M 167.851562 118.980469 C 167.492188 113.480469 162.75 109.3125 157.253906 109.671875 C 151.757812 110.027344 147.59375 114.773438 147.949219 120.273438 C 148.308594 125.773438 153.050781 129.941406 158.546875 129.582031 C 164.042969 129.226562 168.207031 124.476562 167.851562 118.980469 " fill-opacity="1" fill-rule="nonzero"/><path fill="#fbbe5b" d="M 224.445312 115.296875 C 224.089844 109.800781 219.339844 105.632812 213.847656 105.992188 C 208.351562 106.347656 204.1875 111.09375 204.542969 116.59375 C 204.898438 122.089844 209.648438 126.257812 215.140625 125.898438 C 220.636719 125.542969 224.804688 120.796875 224.445312 115.296875 " fill-opacity="1" fill-rule="nonzero"/><path fill="#fbbe5b" d="M 156.769531 133 C 157.820312 149.1875 171.789062 161.457031 187.964844 160.402344 C 204.144531 159.351562 216.40625 145.375 215.355469 129.1875 C 214.304688 113.003906 200.335938 100.734375 184.15625 101.785156 C 167.980469 102.839844 155.714844 116.8125 156.769531 133 " fill-opacity="1" fill-rule="nonzero"/><path fill="#fbbe5b" d="M 155.265625 109.890625 C 156.316406 126.078125 170.285156 138.34375 186.464844 137.292969 C 202.644531 136.242188 214.90625 122.265625 213.851562 106.082031 C 212.800781 89.894531 198.832031 77.625 182.65625 78.679688 C 166.476562 79.730469 154.214844 93.707031 155.265625 109.890625 " fill-opacity="1" fill-rule="nonzero"/><path fill="#fbbe5b" d="M 156.800781 133.519531 L 215.386719 129.707031 L 213.886719 106.597656 L 155.300781 110.410156 L 156.800781 133.519531 " fill-opacity="1" fill-rule="nonzero"/><g clip-path="url(#id1)"><g clip-path="url(#id2)"><g clip-path="url(#id3)"><g clip-path="url(#id4)"><path fill="url(#id5)" d="M 176.40625 137.414062 L 189.898438 136.535156 L 188.136719 109.445312 L 174.648438 110.320312 Z M 176.40625 137.414062 " fill-rule="nonzero"/></g></g></g></g><path fill="#00365f" d="M 168.648438 113.25 C 170.691406 113.117188 172.453125 114.664062 172.585938 116.710938 L 172.777344 119.625 C 172.910156 121.667969 171.363281 123.429688 169.320312 123.566406 C 167.277344 123.695312 165.515625 122.148438 165.382812 120.105469 L 165.191406 117.191406 C 165.058594 115.148438 166.609375 113.382812 168.648438 113.25 " fill-opacity="1" fill-rule="nonzero"/><path fill="#00365f" d="M 194.039062 111.597656 C 192 111.730469 190.449219 113.496094 190.582031 115.539062 L 190.773438 118.453125 C 190.90625 120.496094 192.667969 122.042969 194.710938 121.914062 C 196.753906 121.78125 198.300781 120.015625 198.167969 117.972656 L 197.976562 115.058594 C 197.847656 113.015625 196.082031 111.464844 194.039062 111.597656 " fill-opacity="1" fill-rule="nonzero"/><path fill="#300c46" d="M 163.535156 108.160156 C 164.257812 108.550781 165.613281 109.152344 167.40625 109.183594 L 167.539062 109.183594 C 170.410156 109.175781 172.359375 107.707031 172.957031 107.222656 C 173.386719 106.875 173.453125 106.246094 173.105469 105.816406 C 172.757812 105.390625 172.128906 105.324219 171.699219 105.671875 C 171.246094 106.042969 169.695312 107.191406 167.539062 107.183594 L 167.4375 107.183594 C 166.082031 107.164062 165.039062 106.703125 164.484375 106.402344 C 163.996094 106.140625 163.390625 106.324219 163.128906 106.808594 C 162.867188 107.292969 163.050781 107.898438 163.535156 108.160156 " fill-opacity="1" fill-rule="nonzero"/><path fill="#300c46" d="M 198.398438 105.050781 C 197.675781 104.660156 196.320312 104.058594 194.527344 104.03125 L 194.394531 104.027344 C 191.523438 104.035156 189.574219 105.507812 188.976562 105.988281 C 188.546875 106.335938 188.480469 106.964844 188.828125 107.390625 C 189.175781 107.820312 189.804688 107.886719 190.234375 107.539062 C 190.6875 107.167969 192.234375 106.019531 194.394531 106.027344 L 194.496094 106.027344 C 195.851562 106.046875 196.894531 106.507812 197.449219 106.808594 C 197.9375 107.070312 198.539062 106.890625 198.804688 106.40625 C 199.066406 105.917969 198.886719 105.3125 198.398438 105.050781 " fill-opacity="1" fill-rule="nonzero"/><path fill="#300c46" d="M 194.683594 89.929688 C 193.503906 82.015625 191.777344 78.808594 190.667969 78.195312 C 189.78125 77.699219 183.847656 77.828125 179.0625 78.132812 C 173.984375 78.457031 169.28125 81.183594 168.414062 81.824219 C 167.390625 82.578125 165.246094 83.851562 165.097656 91.851562 C 164.980469 97.957031 168.203125 106.132812 169.816406 105.460938 C 171.613281 104.707031 169.757812 101.746094 172.550781 92.707031 C 173.953125 88.164062 177.550781 85.5 179.402344 83.378906 C 181.511719 85.242188 185.425781 87.417969 187.40625 91.742188 C 191.34375 100.34375 189.890625 103.519531 191.769531 104.03125 C 193.449219 104.492188 195.589844 95.964844 194.683594 89.929688 " fill-opacity="1" fill-rule="nonzero"/><path fill="#300c46" d="M 167.832031 82.261719 C 166.175781 83.1875 158.007812 93.125 157.597656 95.582031 C 156.8125 97.335938 155.269531 103.835938 154.726562 107.25 C 155.210938 113.21875 155.492188 115.996094 155.976562 121.96875 C 156.800781 120.402344 157.640625 118.148438 158.210938 115.398438 C 159.195312 110.667969 159.542969 108.894531 159.632812 104.230469 C 163.675781 99.796875 164.824219 97.277344 166.214844 94.042969 C 168.460938 88.8125 168.136719 84.53125 167.832031 82.261719 " fill-opacity="1" fill-rule="nonzero"/><path fill="#300c46" d="M 201.632812 82.578125 C 197.925781 79.753906 192.851562 77.902344 188.71875 78.167969 C 188.613281 80.464844 188.992188 87.476562 193.464844 92.269531 C 196.234375 95.234375 201.023438 96.621094 204.625 96.835938 C 205.558594 101.433594 207.480469 107.527344 209.851562 112.035156 C 211.230469 114.664062 212.949219 116.75 214.535156 118.160156 C 214.300781 112.171875 214.070312 106.183594 213.839844 100.195312 C 212.394531 96.910156 213.273438 91.457031 201.632812 82.578125 " fill-opacity="1" fill-rule="nonzero"/><path fill="#b42673" d="M 202.109375 204.566406 L 202.109375 218.929688 C 205.613281 218.421875 208.316406 215.394531 208.316406 211.746094 C 208.316406 208.101562 205.613281 205.074219 202.109375 204.566406 Z M 201.058594 222.835938 L 198.28125 222.835938 L 198.28125 200.660156 L 201.058594 200.660156 C 207.171875 200.660156 212.140625 205.632812 212.140625 211.746094 C 212.140625 217.863281 207.171875 222.835938 201.058594 222.835938 " fill-opacity="1" fill-rule="nonzero"/><path fill="#fbbe5b" d="M 221.988281 206.632812 C 220.632812 204.128906 219.449219 205.203125 213.714844 202.324219 C 210.726562 200.820312 209.253906 199.957031 208.222656 201.25 C 207.910156 201.640625 207.554688 202.726562 207.660156 202.851562 C 209.4375 204.972656 209.828125 204.902344 210.667969 206.105469 C 209.449219 205.800781 209.507812 206.105469 208.261719 205.867188 C 205.300781 205.292969 205.011719 205.707031 204.167969 206.585938 C 203.429688 207.363281 203.515625 211.457031 203.6875 212.972656 C 204.285156 218.296875 205.171875 217.980469 211.230469 218.953125 C 213.25 219.277344 221.773438 219.394531 223.070312 214.023438 C 223.609375 211.785156 223.113281 208.699219 221.988281 206.632812 " fill-opacity="1" fill-rule="nonzero"/><path fill="#b42673" d="M 192.597656 228.898438 L 186.179688 228.898438 C 181.980469 228.898438 178.582031 225.496094 178.582031 221.296875 L 178.582031 200.6875 L 200.195312 200.6875 L 200.195312 221.296875 C 200.195312 225.496094 196.796875 228.898438 192.597656 228.898438 " fill-opacity="1" fill-rule="nonzero"/><path fill="#00365f" d="M 119.097656 294.769531 L 189.613281 292.769531 C 194.027344 292.644531 197.5 288.964844 197.375 284.554688 C 197.25 280.140625 193.574219 276.664062 189.164062 276.792969 L 118.644531 278.789062 C 114.234375 278.914062 110.757812 282.589844 110.886719 287.003906 C 111.011719 291.417969 114.6875 294.894531 119.097656 294.769531 " fill-opacity="1" fill-rule="nonzero"/><path fill="#006eae" d="M 178.605469 301.878906 C 178.9375 298.195312 179.902344 294.59375 181.335938 291.1875 L 186.730469 278.367188 C 187.757812 275.820312 192.035156 277.433594 194.628906 278.34375 C 200.042969 280.25 205.253906 283.722656 205.195312 285.617188 C 205.113281 288.445312 196.1875 320.789062 188.628906 324.824219 C 182.195312 328.257812 177.382812 315.425781 178.605469 301.878906 " fill-opacity="1" fill-rule="nonzero"/><path fill="#a8d7d0" d="M 197.089844 312.019531 L 138.820312 312.019531 L 138.820312 321.425781 L 206.496094 321.425781 C 206.496094 316.230469 202.285156 312.019531 197.089844 312.019531 " fill-opacity="1" fill-rule="nonzero"/><g clip-path="url(#id6)"><path fill="#a8d7d0" d="M 169.902344 321.425781 L 63.027344 321.425781 L 31.246094 250.347656 L 138.121094 250.347656 L 169.902344 321.425781 " fill-opacity="1" fill-rule="nonzero"/></g><path fill="#34a6c4" d="M 222.824219 217.519531 C 224.382812 217.554688 225.925781 217.574219 227.4375 217.574219 C 230.925781 217.574219 234.269531 217.476562 237.375 217.246094 C 239.707031 217.074219 241.902344 216.824219 243.953125 216.46875 C 245.488281 216.203125 246.945312 215.875 248.332031 215.449219 C 249.375 215.128906 250.375 214.753906 251.355469 214.28125 C 252.816406 213.566406 254.273438 212.636719 255.546875 211.128906 C 256.175781 210.378906 256.734375 209.472656 257.125 208.453125 C 257.515625 207.433594 257.71875 206.308594 257.714844 205.222656 C 257.714844 203.699219 257.34375 202.292969 256.804688 201.070312 C 256.261719 199.84375 255.554688 198.765625 254.742188 197.746094 C 252.671875 195.160156 248.902344 194.742188 246.320312 196.808594 C 243.734375 198.875 243.3125 202.648438 245.382812 205.234375 C 245.703125 205.632812 245.828125 205.890625 245.832031 205.90625 L 246.214844 205.738281 L 245.820312 205.871094 L 245.832031 205.90625 L 246.214844 205.738281 L 245.820312 205.871094 L 247.726562 205.222656 L 245.730469 205.222656 C 245.730469 205.558594 245.796875 205.792969 245.820312 205.871094 L 247.726562 205.222656 L 245.730469 205.222656 L 248.652344 205.222656 L 245.855469 204.394531 C 245.769531 204.675781 245.730469 204.972656 245.730469 205.222656 L 248.652344 205.222656 L 245.855469 204.394531 L 248.234375 205.097656 L 246.433594 203.347656 C 246.304688 203.472656 246.007812 203.859375 245.855469 204.394531 L 248.234375 205.097656 L 246.433594 203.347656 L 247.191406 204.085938 L 246.496094 203.285156 L 246.433594 203.347656 L 247.191406 204.085938 L 246.496094 203.285156 L 246.789062 203.617188 L 246.507812 203.273438 L 246.496094 203.285156 L 246.789062 203.617188 L 246.507812 203.273438 C 246.480469 203.316406 245.863281 203.679688 244.804688 203.988281 C 243.21875 204.484375 240.71875 204.921875 237.726562 205.1875 C 234.722656 205.460938 231.210938 205.582031 227.4375 205.582031 C 226.019531 205.582031 224.5625 205.5625 223.082031 205.535156 C 219.773438 205.460938 217.035156 208.089844 216.960938 211.398438 C 216.890625 214.710938 219.515625 217.449219 222.824219 217.519531 " fill-opacity="1" fill-rule="nonzero"/><path fill="#00365f" d="M 213.199219 280.015625 L 222.183594 265.496094 L 218.578125 298.910156 C 218.101562 303.300781 221.273438 307.242188 225.660156 307.714844 C 230.050781 308.1875 233.988281 305.015625 234.464844 300.625 L 241.847656 232.21875 C 242.25 228.5 240.035156 225.015625 236.5 223.800781 C 232.960938 222.582031 229.078125 223.972656 227.109375 227.152344 L 199.613281 271.601562 C 197.292969 275.355469 198.449219 280.285156 202.203125 282.605469 C 205.953125 284.929688 210.878906 283.769531 213.203125 280.015625 L 213.199219 280.015625 " fill-opacity="1" fill-rule="nonzero"/><path fill="#006eae" d="M 242.558594 298.347656 C 239.105469 297.027344 235.449219 296.304688 231.757812 296.089844 L 217.878906 295.277344 C 215.144531 295.078125 214.707031 299.632812 214.382812 302.359375 C 213.699219 308.0625 214.519531 314.273438 216.246094 315.058594 C 218.816406 316.226562 251.769531 322.476562 258.722656 317.46875 C 264.640625 313.207031 255.25 303.226562 242.558594 298.347656 " fill-opacity="1" fill-rule="nonzero"/><path fill="#ffffff" d="M 86.320312 285.886719 C 86.320312 281.320312 90.019531 277.621094 94.582031 277.621094 C 99.144531 277.621094 102.84375 281.320312 102.84375 285.886719 C 102.84375 290.453125 99.144531 294.152344 94.582031 294.152344 C 90.019531 294.152344 86.320312 290.453125 86.320312 285.886719 " fill-opacity="1" fill-rule="nonzero"/><path fill="#00365f" d="M 182.894531 140.574219 C 177.957031 140.878906 173.6875 140.5 170.355469 139.96875 C 169.953125 144.324219 170.140625 148.667969 172.6875 149.933594 C 175.921875 151.539062 180.347656 151.191406 183.574219 150.980469 C 186.796875 150.769531 191.226562 150.542969 194.226562 148.53125 C 196.589844 146.945312 196.210938 142.617188 195.25 138.347656 C 192.015625 139.308594 187.832031 140.238281 182.894531 140.574219 " fill-opacity="1" fill-rule="nonzero"/><g clip-path="url(#id7)"><g clip-path="url(#id8)"><path fill="#ed6d8d" d="M 175.421875 153.328125 C 177.546875 154.203125 179.808594 154.699219 182.09375 154.882812 C 184.605469 155.089844 187.09375 154.914062 189.503906 154.15625 C 192.660156 153.15625 195.476562 151.359375 197.921875 149.140625 C 194.261719 146.992188 188.921875 145.820312 183.066406 146.199219 C 177.925781 146.535156 173.339844 148.003906 170.03125 150.117188 C 171.679688 151.417969 173.472656 152.523438 175.421875 153.328125 " fill-opacity="1" fill-rule="nonzero"/></g></g><g clip-path="url(#id9)"><g clip-path="url(#id10)"><path fill="#ffffff" d="M 195.917969 136.988281 L 182.660156 139.964844 L 169.128906 138.730469 L 168.8125 140.867188 C 168.8125 140.867188 173.542969 143.796875 182.871094 143.191406 C 192.195312 142.582031 196.507812 139.0625 196.507812 139.0625 L 195.917969 136.988281 " fill-opacity="1" fill-rule="nonzero"/></g></g></svg>