<svg xmlns="http://www.w3.org/2000/svg" xmlns:xlink="http://www.w3.org/1999/xlink" width="500" zoomAndPan="magnify" viewBox="0 0 375 374.999991" height="500" preserveAspectRatio="xMidYMid meet" version="1.0"><defs><clipPath id="id1"><path d="M 38 7.53125 L 375 7.53125 L 375 367.527344 L 38 367.527344 Z M 38 7.53125 " clip-rule="nonzero"/></clipPath></defs><g clip-path="url(#id1)"><path fill="#6d3516" d="M 407.382812 328.371094 C 406.132812 330.679688 404.089844 331.910156 401.453125 332.527344 C 402.8125 334.199219 402.792969 335.847656 401.847656 337.585938 C 400.816406 339.5 399.1875 340.421875 397.035156 340.53125 C 395.890625 340.597656 394.773438 340.707031 393.628906 340.53125 C 390.949219 340.113281 388.507812 340.992188 386.046875 341.871094 C 381.367188 343.523438 376.839844 345.632812 372.027344 346.910156 C 363.941406 349.042969 355.835938 349.128906 347.726562 347.105469 C 346.472656 346.796875 345.222656 346.558594 343.992188 346.226562 C 343.265625 346.027344 342.980469 346.25 342.671875 346.886719 C 340.320312 351.679688 337.792969 356.386719 334.542969 360.675781 C 333.3125 362.28125 331.949219 363.160156 329.90625 363.335938 C 323.578125 363.886719 317.269531 363.90625 310.917969 363.644531 C 305.316406 363.402344 299.757812 362.71875 294.265625 361.664062 C 286.351562 360.167969 278.617188 357.96875 270.949219 355.550781 C 264.773438 353.617188 258.667969 351.527344 252.734375 348.886719 C 247.636719 346.621094 243.175781 343.652344 239.726562 339.125 C 235.550781 333.648438 230.980469 328.503906 226.980469 322.875 C 226.871094 322.742188 226.761719 322.609375 226.496094 322.257812 C 226.296875 324.238281 226.101562 326.019531 225.925781 327.777344 C 225.769531 329.382812 225.660156 330.988281 225.441406 332.59375 C 225.132812 334.945312 225.617188 337.167969 226.234375 339.410156 C 227.308594 343.300781 227.945312 347.214844 226.738281 351.195312 C 226.277344 352.757812 225.59375 354.210938 224.828125 355.617188 C 224.539062 356.167969 224.078125 356.628906 223.484375 356.628906 C 222.542969 356.628906 221.816406 357.089844 221.023438 357.464844 C 214.300781 360.542969 207.203125 362.390625 199.972656 363.796875 C 185.296875 366.632812 170.441406 367.511719 155.5 367.382812 C 139.105469 367.226562 122.847656 365.753906 106.761719 362.476562 C 103.003906 361.707031 99.269531 360.785156 95.578125 359.792969 C 94.257812 359.441406 93.402344 358.542969 92.894531 357.398438 C 91.710938 354.714844 90.875 351.898438 90.609375 348.953125 C 90.523438 348.140625 90.367188 348.007812 89.601562 348.273438 C 85.027344 349.855469 80.347656 351 75.515625 351.546875 C 68.726562 352.316406 62.042969 351.988281 55.671875 349.285156 C 46.707031 345.5 41.566406 338.53125 39.390625 329.230469 C 37.5 321.246094 38.160156 313.285156 39.960938 305.371094 C 42.972656 292.066406 48.792969 279.972656 56.308594 268.691406 C 63.714844 257.5625 71.164062 246.480469 79.050781 235.683594 C 82.328125 231.199219 85.425781 226.558594 88.457031 221.894531 C 91.796875 216.730469 95.996094 212.574219 101.3125 209.363281 C 108.125 205.25 115.046875 201.421875 122.03125 197.621094 C 127.042969 194.894531 131.832031 191.769531 136.910156 189.109375 C 136.578125 188.667969 136.117188 188.667969 135.722656 188.539062 C 121.96875 183.941406 110.519531 176.136719 102.035156 164.214844 C 100.191406 161.621094 98.585938 158.851562 97.246094 155.96875 C 97.003906 155.441406 96.742188 155.179688 96.105469 155.289062 C 92.566406 155.859375 89.269531 155.023438 86.085938 153.574219 C 75.207031 148.539062 67.164062 135.652344 67.605469 123.976562 C 67.648438 122.964844 67.847656 121.953125 68 120.917969 C 68.042969 120.609375 68.199219 120.238281 67.671875 120.171875 C 66.835938 120.0625 66.460938 119.421875 66.066406 118.808594 C 61.605469 111.859375 58.96875 104.226562 57.804688 96.09375 C 56.15625 84.636719 57.363281 73.507812 62.089844 62.886719 C 65.164062 55.960938 69.605469 50.089844 76.0625 45.933594 C 76.195312 45.84375 76.304688 45.78125 76.4375 45.691406 C 77.230469 45.25 78.21875 44.964844 78.789062 44.328125 C 79.46875 43.582031 78.503906 42.699219 78.4375 41.820312 C 78.21875 37.949219 81.996094 34.828125 85.972656 35.75 C 86.742188 35.929688 86.917969 35.796875 87.117188 35.046875 C 87.886719 31.949219 89.753906 29.769531 92.875 28.847656 C 94.917969 28.253906 96.808594 28.628906 98.390625 30.101562 C 98.828125 30.496094 99.003906 30.472656 99.398438 30.054688 C 112.101562 16.050781 128.296875 9.429688 146.796875 7.824219 C 148.578125 7.671875 150.378906 7.625 152.160156 7.539062 C 156.707031 7.582031 161.234375 7.691406 165.738281 8.441406 C 193.578125 12.96875 215.925781 26.40625 231.242188 50.59375 C 236.957031 59.632812 240.363281 69.574219 241.394531 80.238281 C 242.316406 89.738281 241.066406 98.949219 237.503906 107.8125 C 237.109375 108.800781 237.109375 109.417969 237.902344 110.277344 C 241.042969 113.683594 241.789062 117.882812 241.394531 122.347656 C 240.40625 133.914062 230.210938 145.546875 218.804688 147.835938 C 216.71875 148.253906 216.035156 149.023438 215.574219 151 C 211.929688 166.019531 202.742188 176.707031 189.492188 184.160156 C 187.710938 185.152344 185.867188 186.007812 183.976562 186.84375 C 184.195312 187.238281 184.59375 187.285156 184.898438 187.4375 C 193.382812 191.75 201.90625 195.949219 210.300781 200.390625 C 218.828125 204.898438 226.9375 210.085938 234.824219 215.605469 C 237.441406 217.433594 239.527344 219.761719 241.285156 222.425781 C 246.492188 230.296875 250.449219 238.804688 254.425781 247.359375 C 260.710938 260.882812 266.292969 274.738281 272.796875 288.171875 C 274.289062 291.273438 275.738281 294.398438 277.210938 297.496094 C 278.265625 299.742188 279.871094 300.992188 282.179688 301.761719 C 290.527344 304.554688 299.097656 306.335938 307.691406 308.097656 C 315.316406 309.679688 323.050781 310.691406 330.785156 311.527344 C 336.386719 312.121094 341.992188 312.691406 347.59375 313.199219 C 349.152344 313.332031 349.746094 313.835938 350.078125 315.441406 C 350.207031 316.035156 350.40625 316.011719 350.890625 315.835938 C 354.164062 314.605469 357.261719 312.976562 360.054688 310.933594 C 363.523438 308.382812 367.261719 306.777344 371.613281 306.359375 C 375.941406 305.941406 380.203125 305.0625 384.53125 304.488281 C 387.101562 304.160156 389.652344 303.566406 392.265625 303.699219 C 393.34375 303.765625 394.375 303.917969 395.34375 304.425781 C 397.628906 305.589844 398.089844 308.117188 396.375 310.03125 C 395.277344 311.261719 393.828125 312.078125 392.265625 313.199219 C 394.660156 313.351562 396.792969 313.507812 398.925781 313.617188 C 400.464844 313.703125 402 313.769531 403.515625 314.054688 C 404.792969 314.296875 405.800781 314.890625 406.21875 316.1875 C 406.660156 317.597656 406.550781 318.980469 405.449219 320.082031 C 404.726562 320.808594 403.914062 321.421875 403.035156 322.171875 C 404.460938 322.632812 405.757812 323.246094 406.792969 324.28125 C 408 325.492188 407.890625 326.898438 407.382812 328.371094 Z M 407.382812 328.371094 " fill-opacity="1" fill-rule="nonzero"/></g><path fill="#c9e6fd" d="M 150.972656 273.066406 C 154.113281 275.96875 157.851562 276.828125 161.804688 276.980469 C 162.664062 277.023438 162.90625 277.3125 162.949219 278.101562 C 163.101562 280.742188 163.367188 283.359375 163.476562 285.996094 C 163.5625 288.109375 164.421875 289.558594 166.441406 290.417969 C 169.472656 291.714844 172.660156 292.328125 175.914062 292.636719 C 181.78125 293.210938 187.601562 293.121094 193.382812 291.847656 C 195.074219 291.472656 196.699219 290.945312 198.214844 290.109375 C 199.710938 289.273438 200.457031 288.019531 200.589844 286.28125 C 201.621094 272.363281 202.675781 258.445312 203.730469 244.523438 C 204.128906 239.289062 204.566406 234.078125 204.960938 228.84375 C 205.050781 227.789062 205.070312 226.886719 203.886719 226.140625 C 198.789062 222.929688 193.117188 221.65625 187.230469 221.148438 C 180.351562 220.554688 173.5625 221.082031 166.992188 223.390625 C 164.882812 224.140625 162.859375 225.105469 161.101562 226.492188 C 160.773438 226.757812 160.441406 226.886719 160.003906 226.867188 C 155.257812 226.667969 150.972656 228.007812 147.082031 230.671875 C 146.644531 230.976562 146.269531 231.109375 145.699219 230.957031 C 144.46875 230.605469 143.261719 230.757812 142.074219 231.308594 C 137.4375 233.417969 134.074219 236.960938 131.414062 241.160156 C 128.539062 245.734375 125.878906 250.484375 123.132812 255.144531 C 122.800781 255.714844 122.558594 256.132812 121.726562 255.828125 C 120.976562 255.539062 120.339844 256.113281 119.746094 256.53125 C 110.828125 262.753906 101.90625 268.976562 92.984375 275.175781 C 85.886719 280.125 78.8125 285.050781 71.714844 290 C 70.261719 291.011719 69.890625 291.933594 70.546875 292.859375 C 71.164062 293.714844 72.175781 293.671875 73.558594 292.703125 C 89.050781 281.90625 104.5625 271.085938 120.054688 260.289062 C 121.351562 259.390625 121.375 259.367188 122.253906 260.707031 C 125.746094 265.941406 129.261719 271.175781 132.757812 276.429688 C 137.613281 283.710938 142.46875 291.011719 147.324219 298.289062 C 148.46875 300.003906 148.488281 300.003906 147.148438 301.632812 C 135.152344 316.210938 121.265625 328.636719 104.71875 337.894531 C 96.433594 342.53125 87.753906 346.140625 78.347656 347.789062 C 72.261719 348.867188 66.175781 349.0625 60.175781 347.347656 C 50.332031 344.554688 44.664062 337.847656 42.464844 328.042969 C 40.707031 320.167969 41.566406 312.363281 43.433594 304.644531 C 46.421875 292.375 51.871094 281.179688 58.835938 270.714844 C 66.21875 259.609375 73.625 248.546875 81.492188 237.773438 C 84.898438 233.109375 88.105469 228.273438 91.269531 223.433594 C 94.28125 218.816406 98.039062 215.078125 102.785156 212.199219 C 109.816406 207.910156 117.066406 203.996094 124.253906 199.996094 C 128.40625 197.683594 132.515625 195.289062 136.601562 192.847656 C 139.105469 191.351562 141.742188 190.605469 144.644531 190.78125 C 145.214844 190.824219 145.566406 191.066406 145.917969 191.507812 C 147.832031 193.859375 150.027344 195.882812 152.644531 197.421875 C 160.332031 201.953125 168.707031 200.257812 174.046875 193.089844 C 174.550781 192.40625 175.011719 191.703125 175.429688 190.976562 C 176.636719 188.957031 178.460938 188.273438 180.636719 189.132812 C 181.824219 189.59375 183.03125 190.078125 184.152344 190.671875 C 193.578125 195.683594 203.378906 199.996094 212.632812 205.335938 C 219.554688 209.316406 226.320312 213.5625 232.847656 218.15625 C 235.199219 219.828125 237.109375 221.917969 238.691406 224.335938 C 243.832031 232.121094 247.703125 240.566406 251.632812 249.007812 C 257.851562 262.421875 263.390625 276.125 269.828125 289.449219 C 271.367188 292.617188 272.839844 295.78125 274.332031 298.972656 C 275.738281 301.984375 277.9375 303.808594 281.058594 304.796875 C 292.375 308.40625 303.933594 310.867188 315.644531 312.757812 C 324.234375 314.144531 332.894531 315.046875 341.574219 315.835938 C 342.957031 315.96875 344.34375 316.210938 345.726562 316.277344 C 346.738281 316.34375 347.109375 316.671875 347.042969 317.726562 C 346.824219 321.464844 346.210938 325.136719 345.460938 328.8125 C 343.289062 339.433594 338.695312 348.953125 332.585938 357.816406 C 331.640625 359.199219 330.542969 359.96875 328.761719 360.125 C 322.808594 360.609375 316.851562 360.585938 310.875 360.324219 C 296.285156 359.683594 282.417969 355.769531 268.621094 351.351562 C 262.621094 349.4375 256.753906 347.195312 251.105469 344.421875 C 247.765625 342.796875 245.0625 340.488281 242.800781 337.585938 C 238.890625 332.617188 234.691406 327.84375 230.980469 322.699219 C 229.640625 320.851562 228.410156 318.960938 227.242188 317.023438 C 227.003906 316.628906 226.957031 316.210938 226.980469 315.769531 C 227.308594 307.347656 227.113281 298.925781 226.957031 290.484375 C 226.914062 288.109375 227.023438 285.710938 226.628906 283.359375 C 226.539062 282.808594 226.453125 282.257812 226.167969 281.796875 C 225.769531 281.09375 225.15625 280.71875 224.34375 280.9375 C 223.464844 281.179688 223.089844 281.839844 223.179688 282.699219 C 224.144531 291.867188 223.882812 301.058594 223.859375 310.25 C 223.835938 317.597656 223.089844 324.875 222.253906 332.152344 C 221.96875 334.703125 222.300781 337.1875 222.957031 339.652344 C 223.75 342.554688 224.539062 345.457031 223.992188 348.515625 C 223.96875 348.625 223.949219 348.734375 223.949219 348.84375 C 223.550781 351.613281 222.34375 353.484375 219.507812 354.648438 C 212.808594 357.398438 205.90625 359.332031 198.808594 360.652344 C 183.449219 363.511719 167.9375 364.347656 152.355469 364.039062 C 142.207031 363.839844 132.097656 363.09375 122.054688 361.730469 C 113.59375 360.585938 105.246094 359.023438 97.003906 356.761719 C 96.324219 356.585938 95.929688 356.277344 95.6875 355.617188 C 94.699219 353 93.972656 350.339844 93.730469 347.546875 C 93.6875 346.976562 93.839844 346.710938 94.390625 346.492188 C 116.695312 337.167969 134.515625 322.058594 149.765625 303.632812 C 150.3125 302.949219 150.796875 302.226562 151.257812 301.476562 C 152.136719 300.046875 151.828125 298.707031 150.863281 297.410156 C 147.257812 292.550781 144.117188 287.382812 140.667969 282.433594 C 140.140625 281.664062 140.207031 281.445312 141.105469 281.160156 C 144.46875 280.125 147.324219 278.277344 149.609375 275.574219 C 150.117188 274.871094 150.597656 274.101562 150.972656 273.066406 Z M 160.859375 249.601562 C 160.554688 244.855469 160.246094 240.105469 159.9375 235.355469 C 159.914062 234.914062 159.738281 234.695312 159.277344 234.671875 C 157.367188 234.539062 155.585938 235.023438 153.875 235.816406 C 153.652344 235.925781 153.367188 236.058594 153.652344 236.367188 C 155.125 237.992188 155.675781 240.148438 156.949219 241.90625 C 158.664062 244.261719 159.851562 246.875 160.289062 249.824219 C 160.507812 251.296875 160.398438 252.8125 160.882812 254.265625 C 161.5 253.890625 161.101562 253.363281 161.101562 252.902344 C 161.082031 252.484375 161.058594 252.066406 161.058594 251.648438 C 160.796875 250.96875 161.101562 250.261719 160.859375 249.601562 Z M 161.433594 261.058594 C 161.015625 263.546875 160.222656 265.875 158.507812 267.8125 C 159.5625 268.339844 160.554688 268.515625 161.585938 268.648438 C 162.046875 268.691406 162.265625 268.667969 162.246094 268.117188 C 162.070312 265.789062 161.914062 263.480469 161.761719 261.148438 C 161.628906 261.105469 161.519531 261.082031 161.433594 261.058594 Z M 161.433594 261.058594 " fill-opacity="1" fill-rule="nonzero"/><path fill="#fecab5" d="M 158.113281 257.628906 C 158.53125 260.640625 158.027344 263.414062 155.917969 265.722656 C 154.816406 266.910156 153.390625 267.570312 151.742188 267.589844 C 150.003906 267.613281 148.886719 268.25 148.511719 269.964844 C 147.457031 274.761719 143.832031 276.695312 139.765625 278.167969 C 138.183594 278.738281 138.050781 278.609375 137.105469 277.199219 C 133.175781 271.328125 129.285156 265.4375 125.328125 259.566406 C 124.890625 258.925781 124.890625 258.488281 125.308594 257.828125 C 128.011719 253.5625 130.535156 249.1875 133.019531 244.789062 C 134.976562 241.3125 137.4375 238.234375 140.6875 235.859375 C 140.863281 235.726562 141.0625 235.640625 141.261719 235.53125 C 142.25 234.828125 143.28125 234.167969 144.554688 234.167969 C 143.589844 234.871094 142.207031 234.847656 141.546875 236.058594 C 141.4375 237.816406 142.269531 238.519531 143.941406 238.015625 C 145.257812 237.617188 146.578125 237.203125 148.007812 237.15625 C 149.960938 237.089844 151.234375 238.058594 151.960938 239.707031 C 152.597656 241.160156 153.433594 242.480469 154.335938 243.777344 C 156.070312 246.304688 157.148438 249.074219 157.300781 252.15625 C 157.367188 253.980469 157.851562 255.78125 158.113281 257.628906 Z M 380.730469 317.949219 C 383.675781 319.730469 387.148438 320.476562 389.960938 322.699219 C 390.75 321.289062 391.101562 321.070312 392.726562 320.9375 C 393.542969 320.871094 394.332031 320.9375 395.144531 320.871094 C 397.714844 320.628906 400.242188 320.257812 402.308594 318.519531 C 402.636719 318.234375 403.1875 317.992188 403.078125 317.53125 C 402.945312 317.046875 402.351562 317.15625 401.933594 317.132812 C 397.519531 316.847656 393.078125 316.738281 388.683594 316.210938 C 385.742188 315.859375 383.257812 316.628906 380.730469 317.949219 Z M 150.597656 191.703125 C 157.234375 198.542969 166.859375 198.433594 171.605469 190.648438 C 164.683594 192.054688 157.785156 192.34375 150.597656 191.703125 Z M 403.933594 326.128906 C 403.101562 325.578125 402.15625 325.25 401.167969 325.140625 C 397.804688 324.785156 394.441406 324.367188 390.992188 324.5 C 391.410156 326.4375 390.949219 328.0625 389.410156 329.316406 C 388.839844 329.777344 388.222656 330.175781 387.628906 330.59375 C 387.257812 330.746094 386.882812 330.878906 386.53125 331.03125 C 386.507812 331.03125 386.507812 331.03125 386.488281 331.054688 C 386.203125 331.164062 385.828125 331.140625 385.628906 331.429688 C 385.324219 331.429688 385.015625 331.339844 384.75 331.605469 C 384.378906 331.648438 383.960938 331.582031 383.632812 331.84375 C 379.785156 332.308594 376.027344 331.867188 372.359375 330.746094 C 370.667969 330.242188 369.105469 330.21875 367.414062 330.703125 C 364.46875 331.539062 361.460938 331.824219 358.40625 331.957031 C 357.417969 332 356.539062 331.824219 356.230469 330.722656 C 355.945312 329.710938 356.734375 328.855469 358.007812 328.765625 C 361.261719 328.546875 364.492188 328.195312 367.65625 327.316406 C 369.105469 326.917969 370.621094 326.789062 372.09375 327.316406 C 374.425781 328.128906 376.839844 328.523438 379.300781 328.722656 C 381.632812 328.921875 383.917969 328.765625 386.046875 327.710938 C 386.839844 327.316406 387.828125 326.898438 387.828125 325.820312 C 387.828125 324.699219 386.773438 324.414062 385.980469 324.039062 C 383.609375 322.917969 381.191406 321.839844 378.796875 320.742188 C 377.105469 319.949219 375.367188 319.597656 373.480469 319.597656 C 371.019531 319.574219 368.578125 319.796875 366.140625 319.816406 C 364.910156 319.839844 364.140625 319.222656 364.097656 318.300781 C 364.050781 317.332031 364.734375 316.671875 365.984375 316.585938 C 367.742188 316.476562 369.5 316.234375 371.238281 316.386719 C 373.898438 316.605469 376.335938 315.945312 378.796875 315.046875 C 381.675781 313.988281 384.421875 312.582031 387.367188 311.746094 C 389.300781 311.195312 391.015625 310.25 392.597656 309.042969 C 393.125 308.625 394.113281 308.273438 393.914062 307.613281 C 393.695312 306.910156 392.664062 307.0625 391.9375 307.042969 C 389.386719 306.953125 386.925781 307.523438 384.421875 307.855469 C 380.117188 308.425781 375.832031 309.152344 371.523438 309.769531 C 368.863281 310.140625 366.292969 310.625 364.03125 312.273438 C 359.898438 315.289062 355.484375 317.792969 350.648438 319.488281 C 350.097656 319.683594 350.121094 320.082031 350.054688 320.519531 C 349.878906 322.015625 349.746094 323.511719 349.503906 324.984375 C 348.515625 330.921875 347.132812 336.75 344.78125 342.3125 C 344.5625 342.839844 344.605469 343.082031 345.222656 343.191406 C 346.363281 343.414062 347.507812 343.699219 348.648438 343.984375 C 356.074219 345.808594 363.503906 345.765625 370.910156 343.851562 C 375.523438 342.664062 379.851562 340.664062 384.3125 339.058594 C 387.652344 337.847656 390.949219 336.75 394.574219 337.34375 C 395.605469 337.519531 396.707031 337.410156 397.738281 337.125 C 398.617188 336.902344 399.078125 336.175781 399.210938 335.363281 C 399.320312 334.660156 398.59375 334.375 398.113281 334.175781 C 396.550781 333.539062 395.011719 333.054688 393.234375 333.320312 C 390.839844 333.691406 388.464844 334.066406 386.15625 334.769531 C 385.300781 335.035156 384.53125 334.925781 384.003906 334.15625 C 383.476562 333.386719 383.761719 332.703125 384.3125 332.066406 C 384.464844 332 384.621094 331.933594 384.773438 331.890625 C 385.058594 331.734375 385.453125 331.800781 385.675781 331.472656 C 385.980469 331.472656 386.3125 331.558594 386.554688 331.230469 C 387.101562 331.207031 387.628906 331.097656 388.113281 330.8125 C 391.34375 330.195312 394.597656 329.867188 397.914062 329.867188 C 399.472656 329.867188 401.011719 329.40625 402.460938 328.789062 C 403.1875 328.480469 403.757812 327.996094 404.199219 327.335938 C 404.507812 326.808594 404.441406 326.457031 403.933594 326.128906 Z M 238.207031 119.292969 C 238.472656 123.753906 237.199219 127.84375 234.957031 131.648438 C 231.199219 137.984375 226.058594 142.667969 218.761719 144.601562 C 217.554688 144.933594 216.324219 145.152344 215.09375 145.152344 C 213.949219 145.152344 213.378906 145.679688 213.179688 146.800781 C 209.597656 166.304688 197.558594 178.707031 179.449219 184.976562 C 156.621094 192.847656 135.285156 188.890625 116.011719 174.355469 C 109.222656 169.230469 104.035156 162.65625 100.300781 154.980469 C 100.125 154.628906 99.949219 154.253906 99.816406 153.882812 C 99.269531 152.210938 98.367188 151.527344 96.652344 151.878906 C 92.894531 152.695312 89.378906 151.925781 86.195312 150.011719 C 76.746094 144.316406 71.339844 136.046875 70.746094 124.855469 C 70.679688 123.691406 70.898438 122.523438 71.164062 121.378906 C 72.546875 115.554688 77.183594 112.605469 83.074219 113.882812 C 88.390625 115.027344 92.476562 118.148438 96.015625 122.105469 C 96.652344 122.808594 97.226562 123.578125 97.796875 124.328125 C 98.058594 124.679688 98.324219 125.03125 98.742188 125.230469 C 99.511719 125.625 100.300781 125.976562 101.09375 125.339844 C 101.882812 124.699219 101.773438 123.867188 101.445312 123.03125 C 101.355469 122.832031 101.289062 122.613281 101.222656 122.414062 C 100.652344 120.632812 100.9375 120.324219 102.761719 120.5 C 105.574219 120.765625 108.386719 120.722656 111.113281 119.796875 C 115.222656 118.390625 117.8125 115.597656 118.757812 111.332031 C 118.914062 110.628906 119.199219 110.054688 119.636719 109.484375 C 124.933594 102.863281 134.164062 100.136719 142.226562 102.84375 C 143.742188 103.347656 144.710938 103.105469 145.039062 102.140625 C 145.390625 101.082031 144.820312 100.25 143.214844 99.765625 C 134.582031 97.148438 126.824219 98.839844 119.878906 104.515625 C 119.660156 104.691406 119.441406 104.910156 119.21875 105.085938 C 119.175781 105.128906 119.089844 105.128906 118.890625 105.175781 C 118.605469 102.910156 117.703125 100.886719 117.441406 98.6875 C 117.15625 96.203125 117.332031 93.785156 118.121094 91.410156 C 120.273438 84.988281 126.253906 82.28125 132.667969 84.855469 C 133.304688 85.121094 133.921875 85.472656 134.558594 85.734375 C 136.207031 86.460938 137.394531 85.953125 138.074219 84.328125 C 139.019531 82.039062 140.382812 80.082031 142.445312 78.675781 C 145.722656 76.433594 149.765625 76.742188 152.882812 79.46875 C 155.960938 82.171875 157.433594 85.714844 157.804688 89.714844 C 158.203125 94.003906 157.34375 97.960938 154.839844 101.613281 C 153.761719 103.195312 153.828125 104.976562 155.828125 106.054688 C 159.167969 107.878906 162.730469 108.890625 166.464844 109.285156 C 174.902344 110.1875 183.03125 109 190.746094 105.394531 C 193.050781 104.316406 195.183594 102.996094 197.03125 101.214844 C 197.492188 100.777344 197.953125 100.710938 198.523438 100.820312 C 203.796875 101.789062 209.378906 107.679688 210.058594 112.980469 C 210.148438 113.597656 210.214844 114.234375 210.015625 114.828125 C 209.730469 115.730469 209.90625 116.476562 210.71875 116.894531 C 211.578125 117.355469 212.324219 117.070312 212.984375 116.390625 C 215.730469 113.507812 219.003906 111.417969 222.804688 110.144531 C 225.417969 109.265625 228.101562 108.957031 230.804688 109.636719 C 235.109375 110.714844 237.902344 114.367188 238.207031 119.292969 Z M 89.972656 128.96875 C 87.492188 125.886719 84.171875 124.238281 80.546875 123.691406 C 79.183594 123.710938 78.328125 124.394531 78.285156 125.316406 C 78.238281 126.261719 78.898438 126.855469 80.085938 126.964844 C 80.371094 126.988281 80.65625 127.03125 80.941406 127.097656 C 83.492188 127.667969 85.621094 128.921875 87.359375 130.859375 C 88.128906 131.695312 89.09375 131.824219 89.777344 131.253906 C 90.433594 130.726562 90.589844 129.738281 89.972656 128.96875 Z M 162.421875 141.808594 C 162.96875 142.382812 163.652344 142.492188 164.332031 142.09375 C 165.519531 141.390625 166.046875 140.246094 166.355469 139.015625 C 166.289062 138.246094 166.023438 137.675781 165.34375 137.390625 C 164.597656 137.082031 163.960938 137.34375 163.496094 137.960938 C 163.015625 138.597656 162.597656 139.300781 162.203125 139.984375 C 161.804688 140.644531 161.894531 141.28125 162.421875 141.808594 Z M 144.929688 135.628906 C 148.597656 131.40625 149.300781 126.394531 147.894531 121.183594 C 146.929688 117.554688 144.050781 115.488281 140.535156 114.410156 C 132.558594 111.945312 122.382812 116.785156 118.824219 124.679688 C 118.605469 125.183594 118.363281 125.691406 118.230469 126.21875 C 117.945312 127.230469 118.363281 128.085938 119.21875 128.375 C 120.011719 128.636719 120.824219 128.242188 121.265625 127.316406 C 121.441406 126.945312 121.550781 126.570312 121.726562 126.195312 C 122.382812 124.679688 123.285156 123.359375 124.625 122.039062 C 124.582031 122.480469 124.582031 122.699219 124.515625 122.898438 C 123.945312 125.449219 124.078125 128 124.800781 130.507812 C 126.339844 135.804688 130.667969 139.476562 135.746094 139.71875 C 139.457031 139.894531 142.535156 138.402344 144.929688 135.628906 Z M 175.320312 152.539062 C 174.683594 151.878906 173.714844 151.816406 172.96875 152.5625 C 171.671875 153.859375 170.066406 154.519531 168.332031 154.914062 C 162.113281 156.34375 156.003906 155.882812 149.960938 153.859375 C 149.476562 153.707031 149.015625 153.484375 148.488281 153.484375 C 147.785156 153.507812 147.28125 153.816406 147.039062 154.453125 C 146.820312 155.070312 146.929688 155.683594 147.433594 156.167969 C 147.808594 156.519531 148.292969 156.695312 148.773438 156.871094 C 152.796875 158.367188 156.992188 158.894531 160.816406 159.003906 C 164.332031 158.984375 167.363281 158.652344 170.308594 157.707031 C 172.132812 157.113281 173.871094 156.324219 175.210938 154.894531 C 175.957031 154.144531 175.957031 153.199219 175.320312 152.539062 Z M 197.910156 118.015625 C 197.03125 115.378906 194.875 113.683594 192.371094 112.671875 C 185.757812 109.988281 179.429688 110.695312 173.453125 114.5625 C 172.222656 115.355469 171.1875 116.410156 170.355469 117.640625 C 170.066406 118.058594 169.804688 118.523438 169.605469 118.984375 C 169.253906 119.839844 169.410156 120.589844 170.222656 121.074219 C 170.945312 121.511719 171.890625 121.269531 172.417969 120.457031 C 173.121094 119.335938 173.847656 118.257812 175.210938 117.378906 C 175.011719 117.972656 174.878906 118.300781 174.792969 118.652344 C 173.34375 123.449219 173.847656 128.023438 176.703125 132.175781 C 180.21875 137.300781 186.59375 138.839844 191.800781 135.871094 C 198.4375 132.066406 199.863281 123.886719 197.910156 118.015625 Z M 231.484375 116.628906 C 231.222656 115.640625 230.472656 115.355469 229.527344 115.464844 C 228.914062 115.554688 228.320312 115.773438 227.769531 116.058594 C 224.101562 118.082031 221.179688 120.875 219.113281 124.523438 C 218.828125 125.03125 218.585938 125.582031 218.585938 126.175781 C 218.542969 127.054688 218.894531 127.691406 219.75 127.933594 C 220.695312 128.199219 221.332031 127.691406 221.640625 126.855469 C 222.253906 125.25 223.265625 123.929688 224.476562 122.722656 C 226.210938 120.984375 227.992188 119.3125 230.40625 118.5 C 231.222656 118.234375 231.726562 117.554688 231.484375 116.628906 Z M 231.484375 116.628906 " fill-opacity="1" fill-rule="nonzero"/><path fill="#ffffff" d="M 182.308594 290.042969 C 178.308594 290.042969 174.332031 289.757812 170.441406 288.765625 C 170.15625 288.703125 169.871094 288.613281 169.605469 288.527344 C 166.550781 287.578125 166.507812 287.558594 166.289062 284.371094 C 165.34375 270.957031 164.398438 257.5625 163.453125 244.148438 C 163.125 239.554688 162.816406 234.9375 162.441406 230.339844 C 162.378906 229.460938 162.617188 228.910156 163.320312 228.425781 C 166.308594 226.402344 169.671875 225.304688 173.1875 224.6875 C 181.273438 223.238281 189.273438 223.457031 197.140625 226.074219 C 198.632812 226.578125 200.039062 227.261719 201.425781 228.03125 C 201.886719 228.296875 202.105469 228.539062 202.0625 229.132812 C 201.226562 239.707031 200.414062 250.308594 199.621094 260.90625 C 199.007812 269.019531 198.347656 277.113281 197.820312 285.226562 C 197.710938 286.855469 197.03125 287.691406 195.625 288.195312 C 192.0625 289.492188 188.371094 289.824219 184.636719 290.042969 C 183.84375 290.085938 183.054688 290.042969 182.308594 290.042969 Z M 153.234375 271.199219 C 153.457031 271.394531 153.675781 271.59375 153.917969 271.769531 C 156.136719 273.441406 158.75 273.902344 161.433594 274.101562 C 161.851562 274.121094 162.730469 274.519531 162.597656 273.527344 C 162.507812 272.824219 163.144531 271.660156 161.628906 271.550781 C 159.761719 271.417969 157.960938 270.910156 156.3125 270.011719 C 155.960938 269.8125 155.632812 269.855469 155.28125 270.03125 C 154.554688 270.363281 153.828125 270.625 153.082031 270.933594 C 153.125 271.023438 153.148438 271.132812 153.234375 271.199219 Z M 150.511719 234.167969 C 150.839844 234.234375 151.082031 234.121094 151.324219 233.945312 C 153.652344 232.429688 156.222656 231.746094 158.992188 231.726562 C 159.210938 231.726562 159.5625 231.8125 159.585938 231.59375 C 159.628906 231.066406 159.628906 230.496094 159.5 229.964844 C 159.410156 229.546875 158.949219 229.726562 158.640625 229.726562 C 154.882812 229.835938 151.5 231.042969 148.421875 233.199219 C 148.292969 233.285156 148.09375 233.375 148.136719 233.726562 C 148.929688 233.902344 149.71875 234.011719 150.511719 234.167969 Z M 190.527344 124.722656 C 191.800781 124.746094 192.875 123.511719 192.875 122.0625 C 192.875 120.546875 191.777344 119.292969 190.480469 119.3125 C 189.207031 119.335938 188.195312 120.566406 188.195312 122.039062 C 188.195312 123.449219 189.273438 124.699219 190.527344 124.722656 Z M 139.523438 126.679688 C 140.796875 126.679688 141.855469 125.625 141.875 124.304688 C 141.898438 122.855469 140.863281 121.667969 139.546875 121.621094 C 138.25 121.578125 137.347656 122.503906 137.328125 123.910156 C 137.304688 125.40625 138.316406 126.65625 139.523438 126.679688 Z M 139.523438 126.679688 " fill-opacity="1" fill-rule="nonzero"/></svg>