<svg xmlns="http://www.w3.org/2000/svg" xmlns:xlink="http://www.w3.org/1999/xlink" width="800" zoomAndPan="magnify" viewBox="0 0 600 599.999999" height="800" preserveAspectRatio="xMidYMid meet" version="1.0"><defs><clipPath id="id1"><path d="M 149 215 L 344 215 L 344 408.9375 L 149 408.9375 Z M 149 215 " clip-rule="nonzero"/></clipPath><clipPath id="id2"><path d="M 250 156.9375 L 266 156.9375 L 266 173 L 250 173 Z M 250 156.9375 " clip-rule="nonzero"/></clipPath></defs><path fill="#ffffff" d="M 336.519531 377.210938 L 273.582031 280.324219 L 273.582031 218.898438 L 219.261719 218.898438 L 219.261719 280.324219 L 156.328125 377.210938 C 154.425781 380.128906 153.300781 383.699219 153.300781 387.574219 C 153.300781 397.195312 160.246094 404.992188 168.820312 404.992188 L 324.019531 404.992188 C 332.59375 404.992188 339.539062 397.199219 339.539062 387.574219 C 339.539062 383.699219 338.414062 380.128906 336.519531 377.210938 Z M 336.519531 377.210938 " fill-opacity="1" fill-rule="nonzero"/><path fill="#f2d5c5" d="M 164.859375 364.285156 L 330.429688 364.285156 L 338.523438 380.527344 C 338.523438 380.527344 344.777344 400.585938 326.296875 406.929688 L 168.96875 406.929688 C 168.96875 406.929688 143.785156 400.925781 157.285156 376.46875 Z M 164.859375 364.285156 " fill-opacity="1" fill-rule="nonzero"/><g clip-path="url(#id1)"><path fill="#225c97" d="M 324.019531 408.871094 L 168.820312 408.871094 C 158.125 408.871094 149.421875 399.316406 149.421875 387.578125 C 149.421875 383.089844 150.683594 378.773438 153.070312 375.097656 L 215.378906 279.179688 L 215.378906 218.898438 C 215.378906 216.757812 217.117188 215.023438 219.261719 215.023438 L 273.582031 215.023438 C 275.722656 215.023438 277.460938 216.757812 277.460938 218.898438 L 277.460938 279.179688 L 339.773438 375.097656 C 342.160156 378.769531 343.421875 383.085938 343.421875 387.578125 C 343.421875 399.316406 334.71875 408.871094 324.019531 408.871094 Z M 223.140625 222.777344 L 223.140625 280.328125 C 223.140625 281.074219 222.921875 281.8125 222.515625 282.4375 L 159.582031 379.324219 C 158.015625 381.734375 157.183594 384.589844 157.183594 387.578125 C 157.183594 395.042969 162.40625 401.117188 168.824219 401.117188 L 324.023438 401.117188 C 330.441406 401.117188 335.664062 395.042969 335.664062 387.578125 C 335.664062 384.589844 334.835938 381.730469 333.269531 379.324219 L 270.332031 282.4375 C 269.925781 281.8125 269.707031 281.074219 269.707031 280.328125 L 269.707031 222.777344 Z M 223.140625 222.777344 " fill-opacity="1" fill-rule="nonzero"/></g><path fill="#ffffff" d="M 242.539062 230.53125 L 215.378906 230.53125 C 211.113281 230.53125 207.621094 227.042969 207.621094 222.777344 C 207.621094 218.511719 211.113281 215.023438 215.378906 215.023438 L 277.460938 215.023438 C 281.730469 215.023438 285.21875 218.511719 285.21875 222.777344 C 285.21875 227.042969 281.730469 230.53125 277.460938 230.53125 L 269.699219 230.53125 " fill-opacity="1" fill-rule="nonzero"/><path fill="#225c97" d="M 277.460938 234.40625 L 269.699219 234.40625 C 267.558594 234.40625 265.820312 232.675781 265.820312 230.53125 C 265.820312 228.386719 267.558594 226.652344 269.699219 226.652344 L 277.460938 226.652344 C 279.597656 226.652344 281.339844 224.917969 281.339844 222.777344 C 281.339844 220.636719 279.597656 218.898438 277.460938 218.898438 L 215.378906 218.898438 C 213.242188 218.898438 211.5 220.636719 211.5 222.777344 C 211.5 224.917969 213.242188 226.652344 215.378906 226.652344 L 242.539062 226.652344 C 244.683594 226.652344 246.421875 228.386719 246.421875 230.53125 C 246.421875 232.675781 244.683594 234.40625 242.539062 234.40625 L 215.378906 234.40625 C 208.964844 234.40625 203.742188 229.191406 203.742188 222.777344 C 203.742188 216.363281 208.964844 211.144531 215.378906 211.144531 L 277.460938 211.144531 C 283.878906 211.144531 289.101562 216.363281 289.101562 222.777344 C 289.101562 229.191406 283.878906 234.40625 277.460938 234.40625 Z M 277.460938 234.40625 " fill-opacity="1" fill-rule="nonzero"/><path fill="#225c97" d="M 256.121094 234.40625 L 252.242188 234.40625 C 250.097656 234.40625 248.359375 232.675781 248.359375 230.53125 C 248.359375 228.386719 250.097656 226.652344 252.242188 226.652344 L 256.121094 226.652344 C 258.261719 226.652344 260 228.386719 260 230.53125 C 260 232.675781 258.261719 234.40625 256.121094 234.40625 Z M 213.441406 311.945312 L 197.921875 311.945312 C 196.851562 311.945312 195.980469 311.078125 195.980469 310.007812 C 195.980469 308.9375 196.851562 308.070312 197.921875 308.070312 L 213.441406 308.070312 C 214.511719 308.070312 215.378906 308.9375 215.378906 310.007812 C 215.378906 311.078125 214.515625 311.945312 213.441406 311.945312 Z M 205.679688 327.453125 L 190.160156 327.453125 C 189.089844 327.453125 188.222656 326.585938 188.222656 325.515625 C 188.222656 324.445312 189.089844 323.578125 190.160156 323.578125 L 205.679688 323.578125 C 206.75 323.578125 207.621094 324.445312 207.621094 325.515625 C 207.621094 326.585938 206.753906 327.453125 205.679688 327.453125 Z M 201.800781 339.085938 L 182.402344 339.085938 C 181.328125 339.085938 180.460938 338.214844 180.460938 337.144531 C 180.460938 336.078125 181.328125 335.207031 182.402344 335.207031 L 201.800781 335.207031 C 202.871094 335.207031 203.742188 336.078125 203.742188 337.144531 C 203.742188 338.214844 202.875 339.085938 201.800781 339.085938 Z M 190.160156 350.714844 L 174.640625 350.714844 C 173.570312 350.714844 172.699219 349.847656 172.699219 348.777344 C 172.699219 347.707031 173.570312 346.839844 174.640625 346.839844 L 190.160156 346.839844 C 191.230469 346.839844 192.101562 347.707031 192.101562 348.777344 C 192.101562 349.847656 191.234375 350.714844 190.160156 350.714844 Z M 190.160156 350.714844 " fill-opacity="1" fill-rule="nonzero"/><path fill="#eda883" d="M 232.839844 375.914062 C 232.328125 375.914062 231.832031 376.015625 231.355469 376.210938 C 230.878906 376.40625 230.460938 376.6875 230.097656 377.050781 C 229.734375 377.414062 229.453125 377.832031 229.257812 378.308594 C 229.058594 378.785156 228.960938 379.277344 228.960938 379.792969 C 228.960938 380.308594 229.058594 380.800781 229.257812 381.277344 C 229.453125 381.75 229.734375 382.171875 230.097656 382.535156 C 230.460938 382.898438 230.878906 383.175781 231.355469 383.375 C 231.832031 383.570312 232.328125 383.667969 232.839844 383.667969 C 233.355469 383.667969 233.851562 383.570312 234.324219 383.375 C 234.800781 383.175781 235.21875 382.898438 235.585938 382.535156 C 235.949219 382.171875 236.226562 381.75 236.425781 381.277344 C 236.621094 380.800781 236.722656 380.308594 236.722656 379.792969 C 236.722656 379.277344 236.621094 378.785156 236.425781 378.308594 C 236.226562 377.832031 235.949219 377.414062 235.585938 377.050781 C 235.21875 376.6875 234.800781 376.40625 234.324219 376.210938 C 233.851562 376.015625 233.355469 375.914062 232.839844 375.914062 Z M 232.839844 375.914062 " fill-opacity="1" fill-rule="nonzero"/><path fill="#225c97" d="M 232.839844 385.609375 C 229.632812 385.609375 227.019531 383 227.019531 379.792969 C 227.019531 376.585938 229.632812 373.976562 232.839844 373.976562 C 236.050781 373.976562 238.660156 376.585938 238.660156 379.792969 C 238.660156 383 236.050781 385.609375 232.839844 385.609375 Z M 232.839844 377.855469 C 231.769531 377.855469 230.902344 378.726562 230.902344 379.792969 C 230.902344 380.859375 231.769531 381.730469 232.839844 381.730469 C 233.910156 381.730469 234.78125 380.859375 234.78125 379.792969 C 234.78125 378.726562 233.910156 377.855469 232.839844 377.855469 Z M 232.839844 377.855469 " fill-opacity="1" fill-rule="nonzero"/><path fill="#eda883" d="M 271.640625 372.039062 C 270.875 372.039062 270.121094 372.113281 269.371094 372.261719 C 268.621094 372.410156 267.890625 372.632812 267.1875 372.925781 C 266.480469 373.214844 265.808594 373.574219 265.171875 374 C 264.539062 374.421875 263.949219 374.90625 263.410156 375.445312 C 262.871094 375.984375 262.386719 376.574219 261.960938 377.207031 C 261.539062 377.84375 261.179688 378.511719 260.886719 379.21875 C 260.59375 379.925781 260.375 380.652344 260.222656 381.402344 C 260.074219 382.148438 260 382.90625 260 383.667969 C 260 384.433594 260.074219 385.191406 260.222656 385.9375 C 260.375 386.6875 260.59375 387.414062 260.886719 388.121094 C 261.179688 388.824219 261.539062 389.496094 261.960938 390.132812 C 262.386719 390.765625 262.871094 391.355469 263.410156 391.894531 C 263.949219 392.433594 264.539062 392.914062 265.171875 393.339844 C 265.808594 393.765625 266.480469 394.121094 267.1875 394.414062 C 267.890625 394.707031 268.621094 394.929688 269.371094 395.078125 C 270.121094 395.226562 270.875 395.300781 271.640625 395.300781 C 272.40625 395.300781 273.160156 395.226562 273.910156 395.078125 C 274.660156 394.929688 275.390625 394.707031 276.09375 394.414062 C 276.800781 394.121094 277.472656 393.765625 278.105469 393.339844 C 278.742188 392.914062 279.332031 392.433594 279.871094 391.894531 C 280.410156 391.355469 280.894531 390.765625 281.320312 390.132812 C 281.742188 389.496094 282.101562 388.824219 282.394531 388.121094 C 282.6875 387.414062 282.90625 386.6875 283.058594 385.9375 C 283.207031 385.191406 283.28125 384.433594 283.28125 383.667969 C 283.28125 382.90625 283.207031 382.148438 283.058594 381.402344 C 282.90625 380.652344 282.6875 379.925781 282.394531 379.21875 C 282.101562 378.511719 281.742188 377.84375 281.320312 377.207031 C 280.894531 376.574219 280.410156 375.984375 279.871094 375.445312 C 279.332031 374.90625 278.742188 374.421875 278.105469 374 C 277.472656 373.574219 276.800781 373.214844 276.09375 372.925781 C 275.390625 372.632812 274.660156 372.410156 273.910156 372.261719 C 273.160156 372.113281 272.40625 372.039062 271.640625 372.039062 Z M 271.640625 372.039062 " fill-opacity="1" fill-rule="nonzero"/><path fill="#225c97" d="M 271.640625 397.238281 C 264.152344 397.238281 258.0625 391.152344 258.0625 383.667969 C 258.0625 376.1875 264.152344 370.101562 271.640625 370.101562 C 279.128906 370.101562 285.21875 376.1875 285.21875 383.667969 C 285.21875 391.152344 279.128906 397.238281 271.640625 397.238281 Z M 271.640625 373.976562 C 266.292969 373.976562 261.941406 378.324219 261.941406 383.667969 C 261.941406 389.015625 266.292969 393.363281 271.640625 393.363281 C 276.988281 393.363281 281.339844 389.015625 281.339844 383.667969 C 281.339844 378.324219 276.992188 373.976562 271.640625 373.976562 Z M 271.640625 373.976562 " fill-opacity="1" fill-rule="nonzero"/><path fill="#eda883" d="M 275.519531 329.390625 C 275.011719 329.390625 274.507812 329.441406 274.007812 329.542969 C 273.507812 329.640625 273.023438 329.789062 272.550781 329.984375 C 272.082031 330.175781 271.632812 330.417969 271.210938 330.699219 C 270.785156 330.980469 270.394531 331.304688 270.035156 331.664062 C 269.671875 332.023438 269.351562 332.414062 269.070312 332.839844 C 268.785156 333.261719 268.546875 333.707031 268.351562 334.179688 C 268.15625 334.648438 268.007812 335.132812 267.910156 335.632812 C 267.808594 336.132812 267.761719 336.636719 267.761719 337.144531 C 267.761719 337.65625 267.808594 338.160156 267.910156 338.660156 C 268.007812 339.160156 268.15625 339.644531 268.351562 340.113281 C 268.546875 340.585938 268.785156 341.03125 269.070312 341.453125 C 269.351562 341.878906 269.671875 342.269531 270.035156 342.628906 C 270.394531 342.988281 270.785156 343.3125 271.210938 343.59375 C 271.632812 343.875 272.082031 344.113281 272.550781 344.308594 C 273.023438 344.503906 273.507812 344.652344 274.007812 344.75 C 274.507812 344.851562 275.011719 344.898438 275.519531 344.898438 C 276.03125 344.898438 276.535156 344.851562 277.035156 344.75 C 277.535156 344.652344 278.019531 344.503906 278.488281 344.308594 C 278.960938 344.113281 279.40625 343.875 279.832031 343.59375 C 280.253906 343.3125 280.648438 342.988281 281.007812 342.628906 C 281.367188 342.269531 281.691406 341.878906 281.972656 341.453125 C 282.257812 341.03125 282.496094 340.585938 282.691406 340.113281 C 282.886719 339.644531 283.03125 339.160156 283.132812 338.660156 C 283.230469 338.160156 283.28125 337.65625 283.28125 337.144531 C 283.28125 336.636719 283.230469 336.132812 283.132812 335.632812 C 283.03125 335.132812 282.886719 334.648438 282.691406 334.179688 C 282.496094 333.707031 282.257812 333.261719 281.972656 332.839844 C 281.691406 332.414062 281.367188 332.023438 281.007812 331.664062 C 280.648438 331.304688 280.253906 330.980469 279.832031 330.699219 C 279.40625 330.417969 278.960938 330.175781 278.488281 329.984375 C 278.019531 329.789062 277.535156 329.640625 277.035156 329.542969 C 276.535156 329.441406 276.03125 329.390625 275.519531 329.390625 Z M 275.519531 329.390625 " fill-opacity="1" fill-rule="nonzero"/><path fill="#225c97" d="M 275.519531 346.839844 C 270.175781 346.839844 265.820312 342.492188 265.820312 337.144531 C 265.820312 331.800781 270.175781 327.453125 275.519531 327.453125 C 280.867188 327.453125 285.21875 331.800781 285.21875 337.144531 C 285.21875 342.492188 280.871094 346.839844 275.519531 346.839844 Z M 275.519531 331.332031 C 272.3125 331.332031 269.699219 333.941406 269.699219 337.144531 C 269.699219 340.351562 272.3125 342.960938 275.519531 342.960938 C 278.730469 342.960938 281.339844 340.351562 281.339844 337.144531 C 281.339844 333.941406 278.730469 331.332031 275.519531 331.332031 Z M 275.519531 331.332031 " fill-opacity="1" fill-rule="nonzero"/><path fill="#eda883" d="M 238.660156 178.191406 C 238.023438 178.191406 237.394531 178.253906 236.769531 178.378906 C 236.144531 178.503906 235.539062 178.6875 234.949219 178.929688 C 234.359375 179.175781 233.800781 179.472656 233.273438 179.824219 C 232.742188 180.179688 232.253906 180.582031 231.800781 181.03125 C 231.351562 181.480469 230.949219 181.972656 230.59375 182.5 C 230.242188 183.027344 229.941406 183.585938 229.699219 184.175781 C 229.457031 184.765625 229.269531 185.371094 229.148438 185.992188 C 229.023438 186.617188 228.960938 187.25 228.960938 187.886719 C 228.960938 188.519531 229.023438 189.152344 229.148438 189.777344 C 229.269531 190.398438 229.457031 191.007812 229.699219 191.59375 C 229.941406 192.183594 230.242188 192.742188 230.59375 193.269531 C 230.949219 193.796875 231.351562 194.289062 231.800781 194.738281 C 232.253906 195.1875 232.742188 195.589844 233.273438 195.945312 C 233.800781 196.296875 234.359375 196.597656 234.949219 196.839844 C 235.539062 197.082031 236.144531 197.265625 236.769531 197.390625 C 237.394531 197.515625 238.023438 197.578125 238.660156 197.578125 C 239.296875 197.578125 239.929688 197.515625 240.554688 197.390625 C 241.179688 197.265625 241.785156 197.082031 242.371094 196.839844 C 242.960938 196.597656 243.519531 196.296875 244.050781 195.945312 C 244.578125 195.589844 245.070312 195.1875 245.519531 194.738281 C 245.96875 194.289062 246.371094 193.796875 246.726562 193.269531 C 247.078125 192.742188 247.378906 192.183594 247.621094 191.59375 C 247.867188 191.007812 248.050781 190.398438 248.175781 189.777344 C 248.296875 189.152344 248.359375 188.519531 248.359375 187.886719 C 248.359375 187.25 248.296875 186.617188 248.175781 185.992188 C 248.050781 185.371094 247.867188 184.765625 247.621094 184.175781 C 247.378906 183.585938 247.078125 183.027344 246.726562 182.5 C 246.371094 181.972656 245.96875 181.480469 245.519531 181.03125 C 245.070312 180.582031 244.578125 180.179688 244.050781 179.824219 C 243.519531 179.472656 242.960938 179.175781 242.371094 178.929688 C 241.785156 178.6875 241.179688 178.503906 240.554688 178.378906 C 239.929688 178.253906 239.296875 178.191406 238.660156 178.191406 Z M 238.660156 178.191406 " fill-opacity="1" fill-rule="nonzero"/><path fill="#225c97" d="M 238.660156 199.515625 C 232.242188 199.515625 227.019531 194.296875 227.019531 187.886719 C 227.019531 181.472656 232.242188 176.253906 238.660156 176.253906 C 245.078125 176.253906 250.300781 181.472656 250.300781 187.886719 C 250.300781 194.296875 245.078125 199.515625 238.660156 199.515625 Z M 238.660156 180.132812 C 234.382812 180.132812 230.902344 183.609375 230.902344 187.886719 C 230.902344 192.160156 234.382812 195.640625 238.660156 195.640625 C 242.941406 195.640625 246.421875 192.160156 246.421875 187.886719 C 246.421875 183.609375 242.941406 180.132812 238.660156 180.132812 Z M 238.660156 180.132812 " fill-opacity="1" fill-rule="nonzero"/><path fill="#eda883" d="M 258.0625 158.808594 C 257.679688 158.808594 257.300781 158.84375 256.925781 158.917969 C 256.550781 158.996094 256.1875 159.105469 255.832031 159.25 C 255.480469 159.398438 255.144531 159.574219 254.828125 159.789062 C 254.507812 160 254.214844 160.242188 253.945312 160.511719 C 253.675781 160.78125 253.433594 161.074219 253.222656 161.390625 C 253.007812 161.710938 252.828125 162.046875 252.683594 162.398438 C 252.539062 162.75 252.425781 163.113281 252.351562 163.488281 C 252.277344 163.863281 252.242188 164.242188 252.242188 164.625 C 252.242188 165.003906 252.277344 165.382812 252.351562 165.757812 C 252.425781 166.132812 252.539062 166.496094 252.683594 166.847656 C 252.828125 167.203125 253.007812 167.535156 253.222656 167.855469 C 253.433594 168.171875 253.675781 168.464844 253.945312 168.734375 C 254.214844 169.003906 254.507812 169.246094 254.828125 169.457031 C 255.144531 169.671875 255.480469 169.851562 255.832031 169.996094 C 256.1875 170.140625 256.550781 170.253906 256.925781 170.328125 C 257.300781 170.402344 257.679688 170.4375 258.0625 170.4375 C 258.441406 170.4375 258.820312 170.402344 259.195312 170.328125 C 259.570312 170.253906 259.933594 170.140625 260.289062 169.996094 C 260.640625 169.851562 260.976562 169.671875 261.292969 169.457031 C 261.613281 169.246094 261.90625 169.003906 262.175781 168.734375 C 262.445312 168.464844 262.6875 168.171875 262.898438 167.855469 C 263.113281 167.535156 263.292969 167.203125 263.4375 166.847656 C 263.582031 166.496094 263.695312 166.132812 263.769531 165.757812 C 263.84375 165.382812 263.878906 165.003906 263.878906 164.625 C 263.878906 164.242188 263.84375 163.863281 263.769531 163.488281 C 263.695312 163.113281 263.582031 162.75 263.4375 162.398438 C 263.292969 162.046875 263.113281 161.710938 262.898438 161.390625 C 262.6875 161.074219 262.445312 160.78125 262.175781 160.511719 C 261.90625 160.242188 261.613281 160 261.292969 159.789062 C 260.976562 159.574219 260.640625 159.398438 260.289062 159.25 C 259.933594 159.105469 259.570312 158.996094 259.195312 158.917969 C 258.820312 158.84375 258.441406 158.808594 258.0625 158.808594 Z M 258.0625 158.808594 " fill-opacity="1" fill-rule="nonzero"/><g clip-path="url(#id2)"><path fill="#225c97" d="M 258.0625 172.378906 C 253.78125 172.378906 250.300781 168.898438 250.300781 164.625 C 250.300781 160.347656 253.78125 156.871094 258.0625 156.871094 C 262.339844 156.871094 265.820312 160.347656 265.820312 164.625 C 265.820312 168.898438 262.339844 172.378906 258.0625 172.378906 Z M 258.0625 160.746094 C 255.921875 160.746094 254.179688 162.484375 254.179688 164.625 C 254.179688 166.761719 255.921875 168.5 258.0625 168.5 C 260.199219 168.5 261.941406 166.761719 261.941406 164.625 C 261.941406 162.484375 260.199219 160.746094 258.0625 160.746094 Z M 258.0625 160.746094 " fill-opacity="1" fill-rule="nonzero"/></g><path fill="#eda883" d="M 260 313.886719 C 259.484375 313.886719 258.992188 313.984375 258.515625 314.179688 C 258.039062 314.375 257.621094 314.65625 257.257812 315.019531 C 256.894531 315.382812 256.613281 315.804688 256.414062 316.277344 C 256.21875 316.753906 256.121094 317.246094 256.121094 317.761719 C 256.121094 318.277344 256.21875 318.769531 256.414062 319.246094 C 256.613281 319.71875 256.894531 320.140625 257.257812 320.503906 C 257.621094 320.867188 258.039062 321.148438 258.515625 321.34375 C 258.992188 321.539062 259.484375 321.640625 260 321.640625 C 260.515625 321.640625 261.011719 321.539062 261.484375 321.34375 C 261.960938 321.148438 262.378906 320.867188 262.746094 320.503906 C 263.109375 320.140625 263.386719 319.71875 263.585938 319.246094 C 263.78125 318.769531 263.878906 318.277344 263.878906 317.761719 C 263.878906 317.246094 263.78125 316.753906 263.585938 316.277344 C 263.386719 315.804688 263.109375 315.382812 262.746094 315.019531 C 262.378906 314.65625 261.960938 314.375 261.484375 314.179688 C 261.011719 313.984375 260.515625 313.886719 260 313.886719 Z M 260 313.886719 " fill-opacity="1" fill-rule="nonzero"/><path fill="#225c97" d="M 260 323.578125 C 256.792969 323.578125 254.179688 320.96875 254.179688 317.761719 C 254.179688 314.554688 256.792969 311.945312 260 311.945312 C 263.210938 311.945312 265.820312 314.554688 265.820312 317.761719 C 265.820312 320.96875 263.210938 323.578125 260 323.578125 Z M 260 315.824219 C 258.929688 315.824219 258.0625 316.695312 258.0625 317.761719 C 258.0625 318.828125 258.929688 319.699219 260 319.699219 C 261.070312 319.699219 261.941406 318.828125 261.941406 317.761719 C 261.941406 316.695312 261.070312 315.824219 260 315.824219 Z M 260 315.824219 " fill-opacity="1" fill-rule="nonzero"/><path fill="#eda883" d="M 310.441406 372.039062 C 309.925781 372.039062 309.429688 372.136719 308.957031 372.332031 C 308.480469 372.53125 308.0625 372.8125 307.695312 373.175781 C 307.332031 373.539062 307.050781 373.957031 306.855469 374.433594 C 306.660156 374.90625 306.558594 375.402344 306.558594 375.914062 C 306.558594 376.429688 306.660156 376.925781 306.855469 377.398438 C 307.050781 377.875 307.332031 378.292969 307.695312 378.65625 C 308.0625 379.019531 308.480469 379.300781 308.957031 379.496094 C 309.429688 379.695312 309.925781 379.792969 310.441406 379.792969 C 310.953125 379.792969 311.449219 379.695312 311.925781 379.496094 C 312.402344 379.300781 312.820312 379.019531 313.183594 378.65625 C 313.546875 378.292969 313.828125 377.875 314.023438 377.398438 C 314.222656 376.925781 314.320312 376.429688 314.320312 375.914062 C 314.320312 375.402344 314.222656 374.90625 314.023438 374.433594 C 313.828125 373.957031 313.546875 373.539062 313.183594 373.175781 C 312.820312 372.8125 312.402344 372.53125 311.925781 372.332031 C 311.449219 372.136719 310.953125 372.039062 310.441406 372.039062 Z M 310.441406 372.039062 " fill-opacity="1" fill-rule="nonzero"/><path fill="#225c97" d="M 310.441406 381.730469 C 307.230469 381.730469 304.621094 379.121094 304.621094 375.914062 C 304.621094 372.710938 307.230469 370.101562 310.441406 370.101562 C 313.648438 370.101562 316.261719 372.710938 316.261719 375.914062 C 316.261719 379.121094 313.648438 381.730469 310.441406 381.730469 Z M 310.441406 373.976562 C 309.371094 373.976562 308.5 374.847656 308.5 375.914062 C 308.5 376.980469 309.371094 377.855469 310.441406 377.855469 C 311.511719 377.855469 312.378906 376.980469 312.378906 375.914062 C 312.378906 374.847656 311.511719 373.976562 310.441406 373.976562 Z M 310.441406 373.976562 " fill-opacity="1" fill-rule="nonzero"/></svg>
