<?xml version="1.0" standalone="no"?><!DOCTYPE svg PUBLIC "-//W3C//DTD SVG 1.1//EN" "http://www.w3.org/Graphics/SVG/1.1/DTD/svg11.dtd"><svg t="1655018903188" class="icon" viewBox="0 0 1024 1024" version="1.1" xmlns="http://www.w3.org/2000/svg" p-id="9926" xmlns:xlink="http://www.w3.org/1999/xlink" width="64" height="64"><defs><style type="text/css">@font-face { font-family: feedback-iconfont; src: url("//at.alicdn.com/t/font_1031158_u69w8yhxdu.woff2?t=1630033759944") format("woff2"), url("//at.alicdn.com/t/font_1031158_u69w8yhxdu.woff?t=1630033759944") format("woff"), url("//at.alicdn.com/t/font_1031158_u69w8yhxdu.ttf?t=1630033759944") format("truetype"); }
</style></defs><path d="M514 912c-219.9 0-398.8-178.9-398.8-398.9 0-219.9 178.9-398.8 398.8-398.8s398.8 178.9 398.8 398.8c0 220-178.9 398.9-398.8 398.9z m0-701.5c-166.9 0-302.7 135.8-302.7 302.7S347.1 815.9 514 815.9s302.7-135.8 302.7-302.7S680.9 210.5 514 210.5z" fill="#B0D9E4" p-id="9927" data-spm-anchor-id="a313x.7781069.0.i32" class=""></path><path d="M746.1 471.6L582 307.5c-22.9-22.9-60.2-22.9-83.1 0-22.9 22.9-22.9 60.2 0 83.1l63.8 63.8H334c-32.5 0-58.8 26.3-58.8 58.8S301.5 572 334 572h228.7l-63.8 63.8c-11.5 11.5-17.2 26.5-17.2 41.5s5.7 30.1 17.2 41.5c22.9 22.9 60.2 22.9 83.1 0l164.1-164.1c22.9-22.9 22.9-60.1 0-83.1z" fill="#225C97" p-id="9928" data-spm-anchor-id="a313x.7781069.0.i31" class="selected"></path></svg>