<svg xmlns="http://www.w3.org/2000/svg" xmlns:xlink="http://www.w3.org/1999/xlink" width="500" zoomAndPan="magnify" viewBox="0 0 375 374.999991" height="500" preserveAspectRatio="xMidYMid meet" version="1.0"><defs><clipPath id="id1"><path d="M 26 29.898438 L 352 29.898438 L 352 344.84375 L 26 344.84375 Z M 26 29.898438 " clip-rule="nonzero"/></clipPath></defs><path fill="#fea6a6" d="M 231.65625 241.96875 C 237.761719 243.609375 243.546875 245.902344 247.941406 250.660156 C 255.738281 259.082031 258.960938 268.859375 255.691406 280.144531 C 252.183594 292.230469 244.234375 299.867188 231.738281 302.226562 C 211.679688 306.011719 192.976562 289.855469 195.710938 268.1875 C 197.472656 254.308594 207.769531 244.144531 221.558594 241.933594 C 223.839844 241.566406 226.320312 242.21875 228.433594 240.832031 C 229.425781 241.484375 230.429688 242.050781 231.65625 241.96875 Z M 127.179688 257.742188 L 127.046875 257.691406 C 127.046875 257.273438 127.261719 257.070312 127.664062 257.039062 L 127.734375 257.105469 C 127.546875 255.363281 128.773438 254.390625 129.828125 253.320312 C 130.132812 252.601562 130.398438 251.847656 130.734375 251.144531 C 138.601562 234.820312 131.523438 216.367188 114.851562 209.402344 C 112.6875 208.5 110.15625 208.597656 108.328125 206.875 C 106.414062 208.851562 104.484375 209.386719 102.558594 206.910156 C 101.382812 207.09375 100.226562 207.308594 99.050781 207.445312 C 81.257812 209.421875 68.410156 228.1875 73.828125 246.472656 C 77.433594 258.628906 89.59375 268.089844 102.304688 268.273438 C 111.195312 268.40625 118.742188 265.34375 125.148438 259.28125 C 125.636719 258.542969 126.039062 257.65625 127.179688 257.742188 Z M 127.179688 257.742188 " fill-opacity="1" fill-rule="nonzero"/><g clip-path="url(#id1)"><path fill="#225c97" d="M 196.0625 29.914062 C 217.046875 30.300781 240.476562 40.0625 261.460938 56.167969 C 278.851562 69.53125 292.238281 86.171875 301.34375 106.179688 C 301.664062 106.867188 301.796875 107.671875 302.667969 108.054688 C 310.082031 111.355469 312.902344 117.902344 314.679688 125.132812 C 315.265625 127.546875 315.667969 130.023438 315.464844 132.5 C 315.347656 134.09375 315.953125 134.796875 317.429688 135.179688 C 336.902344 140.285156 347.066406 153.816406 350.621094 172.734375 C 354.128906 191.355469 349.902344 208.96875 342.066406 225.84375 C 335.726562 239.492188 326.957031 251.445312 315.96875 261.757812 C 315.132812 262.546875 314.160156 263.046875 314.847656 264.65625 C 319.207031 274.988281 316.105469 284.027344 309.628906 292.332031 C 299.097656 305.84375 276.941406 314.015625 259.75 307.21875 C 258.421875 306.699219 257.820312 307.101562 257.082031 308.136719 C 243.78125 326.65625 224.777344 335.628906 203.277344 341.140625 C 189.4375 344.6875 175.566406 344.789062 161.578125 344.386719 C 154 344.167969 146.652344 342.144531 139.574219 339.546875 C 116.882812 331.242188 97.054688 318.535156 81.140625 300.253906 C 69.046875 286.371094 62 270.25 61.363281 251.648438 C 61.3125 249.957031 60.792969 249.402344 59.148438 248.917969 C 36.339844 242.167969 21.128906 215.078125 27.921875 193.363281 C 30.183594 186.148438 34.410156 180.4375 41.320312 177.054688 C 43.117188 176.167969 43.351562 175.195312 43.117188 173.355469 C 40.148438 151.472656 40.464844 129.773438 48.132812 108.757812 C 60.8125 74.015625 85.699219 54.328125 122.449219 49.539062 C 126.996094 48.953125 131.558594 48.867188 136.136719 48.734375 C 137.476562 48.703125 138.566406 48.449219 139.65625 47.546875 C 154.902344 35.207031 170.167969 29.898438 196.0625 29.914062 Z M 265.886719 183.183594 C 264.292969 183.335938 263.488281 184.304688 262.53125 184.941406 C 249.636719 193.613281 235.5625 198.9375 219.898438 198.988281 C 199.703125 199.054688 182.679688 191.167969 168.1875 177.457031 C 166.660156 176.015625 165.503906 175.648438 163.339844 176.183594 C 149.351562 179.617188 136.554688 176.953125 126.089844 166.925781 C 122.601562 163.578125 119.027344 162.457031 114.769531 162.355469 C 97.660156 161.917969 82.496094 174.894531 79.328125 192.476562 C 77.246094 203.960938 74.816406 215.347656 71.328125 226.515625 C 68.863281 234.433594 66.511719 242.453125 66.765625 250.925781 C 67.183594 264.671875 71.277344 277.382812 79.160156 288.515625 C 96.082031 312.40625 119.429688 327.542969 147.15625 336.03125 C 159.132812 339.699219 171.726562 339.882812 184.070312 338.84375 C 199.988281 337.507812 215.25 333.152344 229.40625 325.433594 C 240.109375 319.605469 248.5625 311.46875 255.085938 301.191406 C 259.230469 294.644531 260.890625 287.09375 264.175781 280.226562 C 270.886719 266.28125 276.269531 251.78125 282.171875 237.5 C 282.710938 236.210938 282.660156 235.421875 281.636719 234.382812 C 269.929688 222.582031 265.117188 208.097656 265.117188 191.757812 C 265.167969 188.941406 265.382812 186.113281 265.886719 183.183594 Z M 31.894531 203.960938 C 31.980469 213.640625 35.214844 222.179688 41.054688 229.8125 C 45.882812 236.125 51.886719 240.8125 59.535156 243.226562 C 60.476562 243.527344 61.53125 244.328125 61.851562 242.335938 C 63.308594 233.246094 66.144531 224.472656 68.792969 215.683594 C 69.398438 213.691406 68.980469 212.332031 67.402344 211.027344 C 63.292969 207.613281 59.503906 203.761719 54.4375 201.683594 C 52.777344 201 51.703125 199.757812 52.507812 197.949219 C 53.28125 196.226562 54.839844 196.042969 56.566406 196.644531 C 58.5625 197.332031 60.410156 198.300781 62.050781 199.574219 C 64.417969 201.382812 66.730469 203.257812 68.960938 205.21875 C 70.289062 206.371094 70.992188 206.691406 71.359375 204.515625 C 72.117188 200.027344 73.222656 195.625 73.875 191.101562 C 74.195312 188.941406 73.640625 187.804688 72.082031 186.664062 C 68.023438 183.703125 63.664062 181.410156 58.714844 180.386719 C 50.261719 178.628906 42.898438 180.519531 37.261719 187.320312 C 33.304688 192.109375 31.894531 197.832031 31.894531 203.960938 Z M 273.066406 274.550781 C 274.105469 274.96875 274.945312 274.535156 275.816406 274.433594 C 279.273438 274.03125 282.726562 273.53125 286.199219 274.097656 C 287.84375 274.367188 289.132812 275.222656 288.984375 276.980469 C 288.847656 278.6875 287.539062 279.492188 285.847656 279.523438 C 285.160156 279.539062 284.453125 279.492188 283.765625 279.472656 C 279.976562 279.375 276.234375 279.808594 272.578125 280.8125 C 270.433594 281.414062 269.039062 282.519531 268.253906 284.765625 C 266.507812 289.703125 265.050781 294.792969 262.449219 299.382812 C 261.226562 301.542969 261.511719 302.292969 263.925781 302.882812 C 277.074219 306.078125 288.699219 302.714844 299.214844 294.8125 C 305.085938 290.40625 309.445312 284.832031 310.90625 277.449219 C 312.246094 270.71875 310.316406 264.972656 304.800781 260.839844 C 297.90625 255.664062 289.988281 255.128906 281.789062 256.484375 C 281.101562 256.601562 280.480469 256.835938 280.160156 257.589844 C 277.8125 263.25 275.449219 268.890625 273.066406 274.550781 Z M 130.652344 254.039062 C 132.816406 252.46875 134.859375 250.757812 137.257812 249.503906 C 139.1875 248.5 140.765625 248.75 142.441406 250.105469 C 155.105469 260.351562 169.429688 263.835938 185.363281 260.269531 C 187.460938 259.800781 188.75 260.386719 189.925781 262.027344 C 198.378906 274.082031 195.929688 289.652344 183.71875 297.941406 C 170.621094 306.832031 156.613281 306.5625 142.625 300.167969 C 132.898438 295.730469 125.820312 288.617188 123.203125 277.882812 C 121.59375 271.285156 123.035156 265.125 126.324219 259.296875 C 126.910156 258.929688 127.246094 258.425781 127.195312 257.722656 C 127.195312 257.722656 127.0625 257.675781 127.0625 257.675781 C 127.582031 257.757812 127.734375 257.488281 127.683594 257.039062 C 127.683594 257.039062 127.75 257.105469 127.75 257.105469 C 128.992188 256.351562 129.796875 255.164062 130.652344 254.039062 Z M 189.21875 277.546875 C 189.21875 274 188.164062 269.945312 186.773438 267.550781 C 185.632812 265.59375 184.507812 265.945312 183.367188 267.417969 C 182.832031 268.121094 182.476562 268.960938 182.007812 269.710938 C 176.925781 277.597656 166.308594 281.28125 156.78125 278.503906 C 147.136719 275.671875 141.300781 268.1875 141.234375 258.460938 C 141.21875 257.207031 141.199219 256.101562 139.960938 255.398438 C 138.683594 254.675781 137.878906 255.632812 137.042969 256.21875 C 127.832031 262.578125 125.46875 273.628906 131.253906 283.207031 C 140.648438 298.761719 164.867188 304.121094 179.894531 293.90625 C 185.613281 289.988281 189.238281 284.765625 189.21875 277.546875 Z M 176.472656 267.21875 C 166.074219 267.484375 156.449219 264.925781 147.222656 260.304688 C 147.339844 266.332031 152.121094 271.621094 158.679688 273.3125 C 165.503906 275.085938 173.335938 272.523438 176.472656 267.21875 Z M 128.371094 206.441406 C 131.824219 209.386719 134.390625 212.984375 136.386719 217.019531 C 137.242188 218.746094 138.46875 220.234375 140.546875 219.132812 C 142.558594 218.058594 142.15625 216.21875 141.320312 214.460938 C 139.222656 210.023438 136.421875 206.070312 132.714844 202.839844 C 123.488281 194.785156 112.132812 194.886719 104.152344 202.992188 C 103.042969 204.113281 102.289062 205.285156 102.558594 206.925781 C 104.503906 209.402344 106.414062 208.867188 108.328125 206.890625 C 113.996094 201.183594 122.046875 201.015625 128.371094 206.441406 Z M 233.082031 237.546875 C 230.128906 230.097656 225.332031 224.65625 216.929688 223.484375 C 209.144531 222.394531 202.570312 225.425781 196.515625 229.898438 C 195.039062 230.984375 194.050781 232.441406 195.394531 234.183594 C 196.699219 235.890625 198.3125 235.457031 199.835938 234.332031 C 202.320312 232.507812 205.003906 231.019531 207.90625 229.964844 C 216.476562 226.898438 223.453125 229.847656 227.226562 238.117188 C 227.628906 239.023438 228.03125 239.925781 228.433594 240.8125 C 229.390625 241.484375 230.398438 242.050781 231.636719 241.96875 C 233.179688 240.832031 233.785156 239.324219 233.082031 237.546875 Z M 156.75 239.289062 C 155.777344 241.332031 157.941406 246.121094 160.105469 246.757812 C 161.109375 247.058594 162.082031 246.925781 162.835938 246.136719 C 163.644531 245.300781 163.960938 244.3125 163.425781 243.175781 C 162.886719 242.019531 162.382812 240.847656 161.816406 239.707031 C 161.246094 238.605469 160.40625 237.832031 159.71875 237.800781 C 157.957031 237.765625 157.203125 238.320312 156.75 239.289062 Z M 156.75 239.289062 " fill-opacity="1" fill-rule="nonzero"/></g><path fill="#fde6da" d="M 265.886719 183.183594 C 265.367188 186.097656 265.148438 188.925781 265.148438 191.773438 C 265.132812 208.113281 269.964844 222.597656 281.671875 234.402344 C 282.695312 235.421875 282.742188 236.210938 282.207031 237.515625 C 276.320312 251.796875 270.917969 266.296875 264.210938 280.242188 C 260.90625 287.109375 259.261719 294.660156 255.121094 301.207031 C 248.59375 311.488281 240.140625 319.625 229.441406 325.449219 C 215.285156 333.167969 200.023438 337.523438 184.105469 338.863281 C 171.761719 339.898438 159.164062 339.714844 147.1875 336.050781 C 119.464844 327.558594 96.117188 312.425781 79.195312 288.53125 C 71.292969 277.382812 67.21875 264.691406 66.796875 250.941406 C 66.546875 242.488281 68.894531 234.449219 71.359375 226.53125 C 74.847656 215.363281 77.28125 203.976562 79.359375 192.492188 C 82.53125 174.929688 97.695312 161.953125 114.800781 162.371094 C 119.078125 162.472656 122.652344 163.59375 126.121094 166.941406 C 136.570312 176.972656 149.386719 179.632812 163.375 176.203125 C 165.539062 175.664062 166.695312 176.035156 168.222656 177.472656 C 182.695312 191.1875 199.738281 199.074219 219.929688 199.003906 C 235.597656 198.957031 249.667969 193.632812 262.566406 184.957031 C 263.503906 184.304688 264.292969 183.351562 265.886719 183.183594 Z M 126.308594 259.316406 C 123.019531 265.125 121.578125 271.285156 123.1875 277.898438 C 125.820312 288.632812 132.882812 295.75 142.609375 300.183594 C 156.597656 306.582031 170.601562 306.847656 183.703125 297.957031 C 195.914062 289.671875 198.378906 274.097656 189.910156 262.042969 C 188.75 260.386719 187.460938 259.816406 185.347656 260.285156 C 169.414062 263.851562 155.089844 260.386719 142.425781 250.121094 C 140.75 248.765625 139.171875 248.515625 137.242188 249.519531 C 134.84375 250.777344 132.796875 252.484375 130.632812 254.058594 C 130.367188 253.824219 130.082031 253.589844 129.8125 253.355469 C 130.113281 252.632812 130.382812 251.882812 130.71875 251.175781 C 138.585938 234.851562 131.507812 216.402344 114.835938 209.4375 C 112.671875 208.53125 110.136719 208.632812 108.308594 206.910156 C 113.980469 201.214844 122.03125 201.046875 128.371094 206.472656 C 131.824219 209.421875 134.390625 213.019531 136.386719 217.054688 C 137.242188 218.78125 138.46875 220.269531 140.546875 219.164062 C 142.558594 218.09375 142.15625 216.25 141.320312 214.492188 C 139.222656 210.054688 136.421875 206.105469 132.714844 202.875 C 123.488281 194.820312 112.132812 194.921875 104.152344 203.023438 C 103.042969 204.144531 102.289062 205.316406 102.558594 206.957031 C 101.382812 207.144531 100.226562 207.359375 99.050781 207.496094 C 81.257812 209.46875 68.410156 228.238281 73.828125 246.523438 C 77.433594 258.679688 89.59375 268.136719 102.304688 268.324219 C 111.195312 268.457031 118.742188 265.394531 125.148438 259.332031 C 125.519531 259.296875 125.921875 259.316406 126.308594 259.316406 Z M 231.65625 241.96875 C 233.179688 240.832031 233.785156 239.324219 233.082031 237.546875 C 230.128906 230.097656 225.332031 224.65625 216.929688 223.484375 C 209.144531 222.394531 202.570312 225.425781 196.515625 229.898438 C 195.039062 230.984375 194.050781 232.441406 195.394531 234.183594 C 196.699219 235.890625 198.3125 235.457031 199.835938 234.332031 C 202.320312 232.507812 205.003906 231.019531 207.90625 229.964844 C 216.476562 226.898438 223.453125 229.847656 227.226562 238.117188 C 227.628906 239.023438 228.03125 239.925781 228.433594 240.8125 C 226.320312 242.203125 223.839844 241.550781 221.542969 241.917969 C 207.753906 244.128906 197.4375 254.292969 195.695312 268.171875 C 192.960938 289.835938 211.664062 305.996094 231.722656 302.210938 C 244.21875 299.851562 252.167969 292.230469 255.671875 280.125 C 258.945312 268.84375 255.722656 259.0625 247.925781 250.640625 C 243.546875 245.902344 237.761719 243.609375 231.65625 241.96875 Z M 159.734375 237.800781 C 157.972656 237.765625 157.203125 238.320312 156.75 239.289062 C 155.777344 241.332031 157.941406 246.121094 160.105469 246.757812 C 161.109375 247.058594 162.082031 246.925781 162.835938 246.136719 C 163.644531 245.300781 163.960938 244.3125 163.425781 243.175781 C 162.886719 242.019531 162.382812 240.847656 161.816406 239.707031 C 161.261719 238.601562 160.40625 237.832031 159.734375 237.800781 Z M 41.070312 229.828125 C 45.898438 236.140625 51.90625 240.832031 59.554688 243.242188 C 60.492188 243.542969 61.550781 244.347656 61.867188 242.355469 C 63.328125 233.261719 66.160156 224.488281 68.8125 215.699219 C 69.414062 213.707031 68.996094 212.351562 67.417969 211.042969 C 63.308594 207.628906 59.519531 203.777344 54.453125 201.703125 C 52.792969 201.015625 51.71875 199.777344 52.523438 197.96875 C 53.296875 196.242188 54.855469 196.058594 56.585938 196.660156 C 58.582031 197.347656 60.425781 198.320312 62.070312 199.589844 C 64.433594 201.398438 66.75 203.273438 68.980469 205.234375 C 70.304688 206.390625 71.007812 206.707031 71.378906 204.53125 C 72.132812 200.042969 73.238281 195.640625 73.894531 191.121094 C 74.210938 188.960938 73.660156 187.820312 72.097656 186.683594 C 68.039062 183.71875 63.679688 181.425781 58.730469 180.402344 C 50.277344 178.644531 42.914062 180.539062 37.277344 187.335938 C 33.320312 192.125 31.894531 197.851562 31.894531 203.976562 C 31.980469 213.640625 35.214844 222.195312 41.070312 229.828125 Z M 275.816406 274.433594 C 279.273438 274.03125 282.726562 273.53125 286.199219 274.097656 C 287.84375 274.367188 289.132812 275.222656 288.984375 276.980469 C 288.847656 278.6875 287.539062 279.492188 285.847656 279.523438 C 285.160156 279.539062 284.453125 279.492188 283.765625 279.472656 C 279.976562 279.375 276.234375 279.808594 272.578125 280.8125 C 270.433594 281.414062 269.039062 282.519531 268.253906 284.765625 C 266.507812 289.703125 265.050781 294.792969 262.449219 299.382812 C 261.226562 301.542969 261.511719 302.292969 263.925781 302.878906 C 277.074219 306.078125 288.699219 302.714844 299.214844 294.8125 C 305.085938 290.40625 309.445312 284.832031 310.90625 277.449219 C 312.246094 270.71875 310.316406 264.972656 304.800781 260.839844 C 297.90625 255.664062 289.988281 255.128906 281.789062 256.484375 C 281.101562 256.601562 280.480469 256.835938 280.160156 257.589844 C 277.8125 263.234375 275.449219 268.875 273.082031 274.535156 C 274.105469 274.96875 274.945312 274.535156 275.816406 274.433594 Z M 129.828125 253.335938 C 128.789062 254.410156 127.546875 255.363281 127.734375 257.121094 C 128.972656 256.367188 129.777344 255.179688 130.652344 254.058594 C 130.382812 253.804688 130.113281 253.570312 129.828125 253.335938 Z M 125.132812 259.296875 C 125.519531 259.296875 125.921875 259.316406 126.308594 259.316406 C 126.894531 258.945312 127.230469 258.445312 127.179688 257.742188 C 126.039062 257.65625 125.636719 258.542969 125.132812 259.296875 Z M 127.046875 257.691406 C 127.566406 257.773438 127.714844 257.507812 127.664062 257.054688 C 127.261719 257.070312 127.0625 257.273438 127.046875 257.691406 Z M 127.046875 257.691406 " fill-opacity="1" fill-rule="nonzero"/><path fill="#fc8888" d="M 189.21875 277.546875 C 189.238281 284.765625 185.632812 289.988281 179.894531 293.890625 C 164.851562 304.101562 140.648438 298.746094 131.253906 283.191406 C 125.484375 273.628906 127.832031 262.5625 137.042969 256.199219 C 137.878906 255.613281 138.683594 254.660156 139.960938 255.378906 C 141.199219 256.082031 141.21875 257.1875 141.234375 258.445312 C 141.300781 268.1875 147.136719 275.671875 156.78125 278.484375 C 166.308594 281.28125 176.925781 277.582031 182.007812 269.695312 C 182.496094 268.941406 182.832031 268.105469 183.367188 267.402344 C 184.507812 265.910156 185.632812 265.578125 186.773438 267.535156 C 188.164062 269.929688 189.21875 273.980469 189.21875 277.546875 Z M 189.21875 277.546875 " fill-opacity="1" fill-rule="nonzero"/><path fill="#f8f7f6" d="M 176.472656 267.21875 C 173.335938 272.507812 165.503906 275.085938 158.660156 273.3125 C 152.121094 271.621094 147.339844 266.3125 147.207031 260.304688 C 156.449219 264.925781 166.074219 267.484375 176.472656 267.21875 Z M 176.472656 267.21875 " fill-opacity="1" fill-rule="nonzero"/></svg>
