<svg xmlns="http://www.w3.org/2000/svg" xmlns:xlink="http://www.w3.org/1999/xlink" width="500" zoomAndPan="magnify" viewBox="0 0 375 374.999991" height="500" preserveAspectRatio="xMidYMid meet" version="1.0"><defs><clipPath id="id1"><path d="M 60.078125 45.515625 L 324.789062 45.515625 L 324.789062 337.265625 L 60.078125 337.265625 Z M 60.078125 45.515625 " clip-rule="nonzero"/></clipPath></defs><g clip-path="url(#id1)"><path fill="#225c97" d="M 79.195312 337.910156 L 324.789062 337.910156 C 300.777344 299.75 259.527344 273.566406 211.988281 270.324219 C 207.070312 213.714844 206.738281 198.089844 207.015625 191.363281 C 207.679688 175.402344 210.335938 160.703125 216.792969 146.101562 C 216.828125 146.019531 216.867188 145.9375 216.902344 145.855469 C 223.636719 130.640625 228.023438 120.949219 235.402344 110.238281 C 243.511719 98.46875 253.589844 87.941406 265 79.082031 C 272.441406 73.304688 282.8125 65.839844 296.363281 57.347656 L 261.960938 86.957031 C 219.574219 130.039062 218.453125 177.484375 219.261719 177.839844 C 256.96875 194.542969 281.296875 167.804688 288.960938 152.050781 C 307.171875 114.628906 296.808594 77.835938 313.554688 45.40625 C 299.074219 46.226562 273.109375 49.894531 245.386719 66.71875 C 233.753906 73.777344 188.179688 96.390625 189.746094 152.996094 C 165.257812 120.289062 138.570312 119.03125 123.1875 118.089844 C 100.074219 116.671875 75.777344 119.976562 60.078125 129.097656 C 91.789062 142.617188 85.765625 165.601562 107.488281 186.332031 C 116.632812 195.054688 152.21875 211.382812 174.914062 189.441406 C 148.304688 137.273438 78.917969 130.667969 78.917969 130.667969 C 109.371094 127.839844 140.570312 143.066406 158.976562 155.511719 C 175.035156 166.367188 184.582031 183.933594 186.070312 203.277344 C 188.148438 230.332031 189.007812 252.53125 189.113281 270.550781 C 142.792969 274.632812 102.722656 300.523438 79.195312 337.910156 " fill-opacity="1" fill-rule="nonzero"/></g></svg>
